{
  "accessors": [
    {
      "bufferView": 2,
      "componentType": 5126,
      "count": 65532,
      "max": [
        3.1250460147857666,
        -2.4500789642333984,
        1.8610659837722778
      ],
      "min": [
        0.8859080076217651,
        -4.116529941558838,
        -2.1542599201202393
      ],
      "type": "VEC3"
    },
    {
      "bufferView": 2,
      "byteOffset": 786384,
      "componentType": 5126,
      "count": 65532,
      "max": [
        0.9999710321426392,
        0.9999916553497314,
        0.9999977946281433
      ],
      "min": [
        -0.9999952912330627,
        -0.9999915957450867,
        -0.999980092048645
      ],
      "type": "VEC3"
    },
    {
      "bufferView": 1,
      "componentType": 5126,
      "count": 65532,
      "max": [
        0.9780709743499756,
        0.9971989989280701
      ],
      "min": [
        0.003269999986514449,
        0.003748999908566475
      ],
      "type": "VEC2"
    },
    {
      "bufferView": 0,
      "componentType": 5125,
      "count": 350466,
      "type": "SCALAR"
    },
    {
      "bufferView": 2,
      "byteOffset": 1572768,
      "componentType": 5126,
      "count": 65532,
      "max": [
        3.3467938899993896,
        -2.2904040813446045,
        0.8805230259895325
      ],
      "min": [
        1.0125290155410767,
        -3.6458590030670166,
        -2.8089048862457275
      ],
      "type": "VEC3"
    },
    {
      "bufferView": 2,
      "byteOffset": 2359152,
      "componentType": 5126,
      "count": 65532,
      "max": [
        0.9999838471412659,
        0.9999879002571106,
        0.999301016330719
      ],
      "min": [
        -0.9999664425849915,
        -0.9999982118606567,
        -0.9999235272407532
      ],
      "type": "VEC3"
    },
    {
      "bufferView": 1,
      "byteOffset": 524256,
      "componentType": 5126,
      "count": 65532,
      "max": [
        0.9903370141983032,
        0.9994189739227295
      ],
      "min": [
        0.0030139998998492956,
        0.016713999211788177
      ],
      "type": "VEC2"
    },
    {
      "bufferView": 0,
      "byteOffset": 1401864,
      "componentType": 5125,
      "count": 327951,
      "type": "SCALAR"
    },
    {
      "bufferView": 2,
      "byteOffset": 3145536,
      "componentType": 5126,
      "count": 65532,
      "max": [
        3.267396926879883,
        -2.2228240966796875,
        -1.052253007888794
      ],
      "min": [
        1.096392035484314,
        -3.932715892791748,
        -3.5319418907165527
      ],
      "type": "VEC3"
    },
    {
      "bufferView": 2,
      "byteOffset": 3931920,
      "componentType": 5126,
      "count": 65532,
      "max": [
        0.9999986886978149,
        0.9999998807907104,
        0.9999995827674866
      ],
      "min": [
        -0.9999998211860657,
        -0.9999997019767761,
        -0.9999790787696838
      ],
      "type": "VEC3"
    },
    {
      "bufferView": 1,
      "byteOffset": 1048512,
      "componentType": 5126,
      "count": 65532,
      "max": [
        0.9772869944572449,
        0.9972829818725586
      ],
      "min": [
        0.0034469999372959137,
        0.004191999789327383
      ],
      "type": "VEC2"
    },
    {
      "bufferView": 0,
      "byteOffset": 2713668,
      "componentType": 5125,
      "count": 346890,
      "type": "SCALAR"
    },
    {
      "bufferView": 2,
      "byteOffset": 4718304,
      "componentType": 5126,
      "count": 59401,
      "max": [
        3.3590779304504395,
        -2.1358439922332764,
        -0.45603200793266296
      ],
      "min": [
        1.0192270278930664,
        -3.9961979389190674,
        -3.5419199466705322
      ],
      "type": "VEC3"
    },
    {
      "bufferView": 2,
      "byteOffset": 5431116,
      "componentType": 5126,
      "count": 59401,
      "max": [
        0.9999986290931702,
        0.9999998807907104,
        0.9999999403953552
      ],
      "min": [
        -0.9999989867210388,
        -0.9999992251396179,
        -0.99998539686203
      ],
      "type": "VEC3"
    },
    {
      "bufferView": 1,
      "byteOffset": 1572768,
      "componentType": 5126,
      "count": 59401,
      "max": [
        0.9922029972076416,
        0.9998729825019836
      ],
      "min": [
        0.0033680000342428684,
        0.003355999942868948
      ],
      "type": "VEC2"
    },
    {
      "bufferView": 0,
      "byteOffset": 4101228,
      "componentType": 5125,
      "count": 253980,
      "type": "SCALAR"
    }
  ],
  "asset": {
    "extras": {
      "author": "nate_siddle (https://sketchfab.com/nate_sid)",
      "license": "CC-BY-NC-4.0 (http://creativecommons.org/licenses/by-nc/4.0/)",
      "source": "https://sketchfab.com/3d-models/statue-of-emperor-trajan-tower-hill-london-6bb04d9b5a3240d39791b6a3dbcd3d41",
      "title": "Statue of Emperor Trajan (Tower Hill, London)"
    },
    "generator": "Sketchfab-12.68.0",
    "version": "2.0"
  },
  "bufferViews": [
    {
      "buffer": 0,
      "byteLength": 5117148,
      "name": "floatBufferViews",
      "target": 34963
    },
    {
      "buffer": 0,
      "byteLength": 2047976,
      "byteOffset": 5117148,
      "byteStride": 8,
      "name": "floatBufferViews",
      "target": 34962
    },
    {
      "buffer": 0,
      "byteLength": 6143928,
      "byteOffset": 7165124,
      "byteStride": 12,
      "name": "floatBufferViews",
      "target": 34962
    }
  ],
  "buffers": [
    {
      "byteLength": 13309052,
      "uri": "scene.bin"
    }
  ],
  "images": [
    {
      "uri": "textures/Scene_-_Root_baseColor.jpeg"
    }
  ],
  "materials": [
    {
      "doubleSided": true,
      "name": "Scene_-_Root",
      "pbrMetallicRoughness": {
        "baseColorTexture": {
          "index": 0
        },
        "metallicFactor": 0.0,
        "roughnessFactor": 0.6
      }
    }
  ],
  "meshes": [
    {
      "name": "Object_0",
      "primitives": [
        {
          "attributes": {
            "NORMAL": 1,
            "POSITION": 0,
            "TEXCOORD_0": 2
          },
          "indices": 3,
          "material": 0,
          "mode": 4
        }
      ]
    },
    {
      "name": "Object_1",
      "primitives": [
        {
          "attributes": {
            "NORMAL": 5,
            "POSITION": 4,
            "TEXCOORD_0": 6
          },
          "indices": 7,
          "material": 0,
          "mode": 4
        }
      ]
    },
    {
      "name": "Object_2",
      "primitives": [
        {
          "attributes": {
            "NORMAL": 9,
            "POSITION": 8,
            "TEXCOORD_0": 10
          },
          "indices": 11,
          "material": 0,
          "mode": 4
        }
      ]
    },
    {
      "name": "Object_3",
      "primitives": [
        {
          "attributes": {
            "NORMAL": 13,
            "POSITION": 12,
            "TEXCOORD_0": 14
          },
          "indices": 15,
          "material": 0,
          "mode": 4
        }
      ]
    }
  ],
  "nodes": [
    {
      "children": [
        1
      ],
      "matrix": [
        1.0,
        0.0,
        0.0,
        0.0,
        0.0,
        2.220446049250313e-16,
        -1.0,
        0.0,
        0.0,
        1.0,
        2.220446049250313e-16,
        0.0,
        0.0,
        0.0,
        0.0,
        1.0
      ],
      "name": "Sketchfab_model"
    },
    {
      "children": [
        2,
        3,
        4,
        5
      ],
      "name": "Emp_Trajan.obj.cleaner.materialmerger.gles"
    },
    {
      "mesh": 0,
      "name": "Object_2"
    },
    {
      "mesh": 1,
      "name": "Object_3"
    },
    {
      "mesh": 2,
      "name": "Object_4"
    },
    {
      "mesh": 3,
      "name": "Object_5"
    }
  ],
  "samplers": [
    {
      "magFilter": 9729,
      "minFilter": 9987,
      "wrapS": 10497,
      "wrapT": 10497
    }
  ],
  "scene": 0,
  "scenes": [
    {
      "name": "Sketchfab_Scene",
      "nodes": [
        0
      ]
    }
  ],
  "textures": [
    {
      "sampler": 0,
      "source": 0
    }
  ]
}
