{
  "accessors": [
    {
      "bufferView": 2,
      "componentType": 5126,
      "count": 6010,
      "max": [
        1.607523798942566,
        0.051666680723428726,
        3.0683414936065674
      ],
      "min": [
        -1.607523798942566,
        -0.08833332359790802,
        2.384185791015625e-07
      ],
      "type": "VEC3"
    },
    {
      "bufferView": 2,
      "byteOffset": 72120,
      "componentType": 5126,
      "count": 6010,
      "max": [
        1.0,
        1.0,
        1.0
      ],
      "min": [
        -1.0,
        -1.0,
        -1.0
      ],
      "type": "VEC3"
    },
    {
      "bufferView": 3,
      "componentType": 5126,
      "count": 6010,
      "max": [
        1.0,
        1.0,
        1.0,
        1.0
      ],
      "min": [
        -1.0,
        -1.0,
        -1.0,
        -1.0
      ],
      "type": "VEC4"
    },
    {
      "bufferView": 1,
      "componentType": 5126,
      "count": 6010,
      "max": [
        0.9918984770774841,
        0.9793252348899841
      ],
      "min": [
        0.000244140625,
        0.0002441507240291685
      ],
      "type": "VEC2"
    },
    {
      "bufferView": 0,
      "componentType": 5125,
      "count": 21456,
      "type": "SCALAR"
    },
    {
      "bufferView": 2,
      "byteOffset": 144240,
      "componentType": 5126,
      "count": 3573,
      "max": [
        0.9737056493759155,
        0.10094217956066132,
        1.116539478302002
      ],
      "min": [
        0.0024403631687164307,
        -0.10094217956066132,
        -1.3093315362930298
      ],
      "type": "VEC3"
    },
    {
      "bufferView": 2,
      "byteOffset": 187116,
      "componentType": 5126,
      "count": 3573,
      "max": [
        1.0,
        1.0,
        1.0
      ],
      "min": [
        -1.0,
        -1.0,
        -1.0
      ],
      "type": "VEC3"
    },
    {
      "bufferView": 3,
      "byteOffset": 96160,
      "componentType": 5126,
      "count": 3573,
      "max": [
        1.0,
        1.0,
        1.0,
        1.0
      ],
      "min": [
        -1.0,
        -1.0,
        -1.0,
        1.0
      ],
      "type": "VEC4"
    },
    {
      "bufferView": 1,
      "byteOffset": 48080,
      "componentType": 5126,
      "count": 3573,
      "max": [
        0.9956958889961243,
        0.974595844745636
      ],
      "min": [
        0.000244140625,
        0.000244140625
      ],
      "type": "VEC2"
    },
    {
      "bufferView": 0,
      "byteOffset": 85824,
      "componentType": 5125,
      "count": 13818,
      "type": "SCALAR"
    },
    {
      "bufferView": 2,
      "byteOffset": 229992,
      "componentType": 5126,
      "count": 3559,
      "max": [
        -0.0024403631687164307,
        0.10094217956066132,
        1.116539478302002
      ],
      "min": [
        -0.9737056493759155,
        -0.10094217956066132,
        -1.3093315362930298
      ],
      "type": "VEC3"
    },
    {
      "bufferView": 2,
      "byteOffset": 272700,
      "componentType": 5126,
      "count": 3559,
      "max": [
        1.0,
        1.0,
        1.0
      ],
      "min": [
        -1.0,
        -1.0,
        -1.0
      ],
      "type": "VEC3"
    },
    {
      "bufferView": 3,
      "byteOffset": 153328,
      "componentType": 5126,
      "count": 3559,
      "max": [
        1.0,
        1.0,
        1.0,
        1.0
      ],
      "min": [
        -1.0,
        -1.0,
        -1.0,
        1.0
      ],
      "type": "VEC4"
    },
    {
      "bufferView": 1,
      "byteOffset": 76664,
      "componentType": 5126,
      "count": 3559,
      "max": [
        0.999755859375,
        0.9687196612358093
      ],
      "min": [
        0.000244140625,
        0.00024414886138401926
      ],
      "type": "VEC2"
    },
    {
      "bufferView": 0,
      "byteOffset": 141096,
      "componentType": 5125,
      "count": 13767,
      "type": "SCALAR"
    }
  ],
  "asset": {
    "extras": {
      "author": "Mark Peters (https://sketchfab.com/mark-peters)",
      "license": "CC-BY-4.0 (http://creativecommons.org/licenses/by/4.0/)",
      "source": "https://sketchfab.com/3d-models/vintage-double-wooden-doors-4096px2-f2dd02e03ded432eb0ef080de0751b4a",
      "title": "Vintage Double Wooden Doors - 4096px²"
    },
    "generator": "Sketchfab-16.74.0",
    "version": "2.0"
  },
  "bufferViews": [
    {
      "buffer": 0,
      "byteLength": 196164,
      "name": "floatBufferViews",
      "target": 34963
    },
    {
      "buffer": 0,
      "byteLength": 105136,
      "byteOffset": 196164,
      "byteStride": 8,
      "name": "floatBufferViews",
      "target": 34962
    },
    {
      "buffer": 0,
      "byteLength": 315408,
      "byteOffset": 301300,
      "byteStride": 12,
      "name": "floatBufferViews",
      "target": 34962
    },
    {
      "buffer": 0,
      "byteLength": 210272,
      "byteOffset": 616708,
      "byteStride": 16,
      "name": "floatBufferViews",
      "target": 34962
    }
  ],
  "buffers": [
    {
      "byteLength": 826980,
      "uri": "scene.bin"
    }
  ],
  "images": [
    {
      "uri": "textures/AsylumEntranceDoors_MTL_baseColor.png"
    },
    {
      "uri": "textures/AsylumEntranceDoors_MTL_metallicRoughness.png"
    },
    {
      "uri": "textures/AsylumEntranceDoors_MTL_normal.png"
    }
  ],
  "materials": [
    {
      "alphaMode": "BLEND",
      "name": "AsylumEntranceDoors_MTL",
      "normalTexture": {
        "index": 2,
        "scale": 0.2
      },
      "pbrMetallicRoughness": {
        "baseColorTexture": {
          "index": 0
        },
        "metallicRoughnessTexture": {
          "index": 1
        }
      }
    }
  ],
  "meshes": [
    {
      "name": "Asylum Entrance - Frame_AsylumEntranceDoors_MTL_0",
      "primitives": [
        {
          "attributes": {
            "NORMAL": 1,
            "POSITION": 0,
            "TANGENT": 2,
            "TEXCOORD_0": 3
          },
          "indices": 4,
          "material": 0,
          "mode": 4
        }
      ]
    },
    {
      "name": "Asylum Entrance - Left Door_AsylumEntranceDoors_MTL_0",
      "primitives": [
        {
          "attributes": {
            "NORMAL": 6,
            "POSITION": 5,
            "TANGENT": 7,
            "TEXCOORD_0": 8
          },
          "indices": 9,
          "material": 0,
          "mode": 4
        }
      ]
    },
    {
      "name": "Asylum Entrance - Right Door_AsylumEntranceDoors_MTL_0",
      "primitives": [
        {
          "attributes": {
            "NORMAL": 11,
            "POSITION": 10,
            "TANGENT": 12,
            "TEXCOORD_0": 13
          },
          "indices": 14,
          "material": 0,
          "mode": 4
        }
      ]
    }
  ],
  "nodes": [
    {
      "children": [
        1
      ],
      "matrix": [
        1.0,
        0.0,
        0.0,
        0.0,
        0.0,
        2.220446049250313e-16,
        -1.0,
        0.0,
        0.0,
        1.0,
        2.220446049250313e-16,
        0.0,
        0.0,
        0.0,
        0.0,
        1.0
      ],
      "name": "Sketchfab_model"
    },
    {
      "children": [
        2
      ],
      "matrix": [
        0.009999999776482582,
        0.0,
        0.0,
        0.0,
        0.0,
        0.0,
        0.009999999776482582,
        0.0,
        0.0,
        -0.009999999776482582,
        0.0,
        0.0,
        0.0,
        0.0,
        0.0,
        1.0
      ],
      "name": "89b7c0942020473099df7c125bb8b085.fbx"
    },
    {
      "children": [
        3
      ],
      "name": "RootNode"
    },
    {
      "children": [
        4,
        6,
        8
      ],
      "matrix": [
        100.0,
        0.0,
        0.0,
        0.0,
        0.0,
        -1.629206793918314e-05,
        -99.99999999999868,
        0.0,
        0.0,
        99.99999999999868,
        -1.629206793918314e-05,
        0.0,
        0.0,
        0.0,
        0.0,
        1.0
      ],
      "name": "Asylum Entrance Doors"
    },
    {
      "children": [
        5
      ],
      "matrix": [
        1.0,
        0.0,
        0.0,
        0.0,
        0.0,
        1.0,
        -2.646977960169688e-23,
        0.0,
        0.0,
        2.646977960169688e-23,
        1.0,
        0.0,
        0.0,
        0.0,
        0.0,
        1.0
      ],
      "name": "Asylum Entrance - Frame"
    },
    {
      "mesh": 0,
      "name": "Asylum Entrance - Frame_AsylumEntranceDoors_MTL_0"
    },
    {
      "children": [
        7
      ],
      "matrix": [
        1.0,
        0.0,
        0.0,
        0.0,
        0.0,
        1.0,
        -2.646977960169688e-23,
        0.0,
        0.0,
        2.646977960169688e-23,
        1.0,
        0.0,
        -0.9779049754142761,
        -0.01833312213420868,
        1.3093317747116089,
        1.0
      ],
      "name": "Asylum Entrance - Left Door"
    },
    {
      "mesh": 1,
      "name": "Asylum Entrance - Left Door_AsylumEntranceDoors_MTL_0"
    },
    {
      "children": [
        9
      ],
      "matrix": [
        1.0,
        0.0,
        0.0,
        0.0,
        0.0,
        1.0,
        -2.646977960169688e-23,
        0.0,
        0.0,
        2.646977960169688e-23,
        1.0,
        0.0,
        0.9779049754142761,
        -0.01833312213420868,
        1.3093317747116089,
        1.0
      ],
      "name": "Asylum Entrance - Right Door"
    },
    {
      "mesh": 2,
      "name": "Asylum Entrance - Right Door_AsylumEntranceDoors_MTL_0"
    }
  ],
  "samplers": [
    {
      "magFilter": 9729,
      "minFilter": 9987,
      "wrapS": 10497,
      "wrapT": 10497
    }
  ],
  "scene": 0,
  "scenes": [
    {
      "name": "Sketchfab_Scene",
      "nodes": [
        0
      ]
    }
  ],
  "textures": [
    {
      "sampler": 0,
      "source": 0
    },
    {
      "sampler": 0,
      "source": 1
    },
    {
      "sampler": 0,
      "source": 2
    }
  ]
}
