{
  "accessors": [
    {
      "bufferView": 2,
      "componentType": 5126,
      "count": 2424,
      "max": [
        1.0000001192092896,
        7.499966621398926,
        0.25717198848724365
      ],
      "min": [
        -0.9999998211860657,
        -7.500033378601074,
        -1.5664496421813965
      ],
      "type": "VEC3"
    },
    {
      "bufferView": 2,
      "byteOffset": 29088,
      "componentType": 5126,
      "count": 2424,
      "type": "VEC3"
    },
    {
      "bufferView": 1,
      "componentType": 5126,
      "count": 2424,
      "type": "VEC2"
    },
    {
      "bufferView": 0,
      "componentType": 5125,
      "count": 11892,
      "type": "SCALAR"
    },
    {
      "bufferView": 2,
      "byteOffset": 58176,
      "componentType": 5126,
      "count": 65532,
      "max": [
        0.015531771816313267,
        1.0365339517593384,
        5.5233354568481445
      ],
      "min": [
        -0.05968967452645302,
        -1.0658626556396484,
        -5.701147079467773
      ],
      "type": "VEC3"
    },
    {
      "bufferView": 2,
      "byteOffset": 844560,
      "componentType": 5126,
      "count": 65532,
      "type": "VEC3"
    },
    {
      "bufferView": 3,
      "componentType": 5126,
      "count": 65532,
      "type": "VEC4"
    },
    {
      "bufferView": 1,
      "byteOffset": 19392,
      "componentType": 5126,
      "count": 65532,
      "type": "VEC2"
    },
    {
      "bufferView": 1,
      "byteOffset": 543648,
      "componentType": 5126,
      "count": 65532,
      "type": "VEC2"
    },
    {
      "bufferView": 0,
      "byteOffset": 47568,
      "componentType": 5125,
      "count": 388290,
      "type": "SCALAR"
    },
    {
      "bufferView": 2,
      "byteOffset": 1630944,
      "componentType": 5126,
      "count": 65532,
      "max": [
        0.029337093234062195,
        1.09651780128479,
        5.5233354568481445
      ],
      "min": [
        -0.06281498074531555,
        -1.0817042589187622,
        -5.734220504760742
      ],
      "type": "VEC3"
    },
    {
      "bufferView": 2,
      "byteOffset": 2417328,
      "componentType": 5126,
      "count": 65532,
      "type": "VEC3"
    },
    {
      "bufferView": 3,
      "byteOffset": 1048512,
      "componentType": 5126,
      "count": 65532,
      "type": "VEC4"
    },
    {
      "bufferView": 1,
      "byteOffset": 1067904,
      "componentType": 5126,
      "count": 65532,
      "type": "VEC2"
    },
    {
      "bufferView": 1,
      "byteOffset": 1592160,
      "componentType": 5126,
      "count": 65532,
      "type": "VEC2"
    },
    {
      "bufferView": 0,
      "byteOffset": 1600728,
      "componentType": 5125,
      "count": 373164,
      "type": "SCALAR"
    },
    {
      "bufferView": 2,
      "byteOffset": 3203712,
      "componentType": 5126,
      "count": 65532,
      "max": [
        0.05827604979276657,
        1.0392621755599976,
        5.525007724761963
      ],
      "min": [
        -0.039289072155952454,
        -1.0863103866577148,
        -4.922389030456543
      ],
      "type": "VEC3"
    },
    {
      "bufferView": 2,
      "byteOffset": 3990096,
      "componentType": 5126,
      "count": 65532,
      "type": "VEC3"
    },
    {
      "bufferView": 3,
      "byteOffset": 2097024,
      "componentType": 5126,
      "count": 65532,
      "type": "VEC4"
    },
    {
      "bufferView": 1,
      "byteOffset": 2116416,
      "componentType": 5126,
      "count": 65532,
      "type": "VEC2"
    },
    {
      "bufferView": 1,
      "byteOffset": 2640672,
      "componentType": 5126,
      "count": 65532,
      "type": "VEC2"
    },
    {
      "bufferView": 0,
      "byteOffset": 3093384,
      "componentType": 5125,
      "count": 381621,
      "type": "SCALAR"
    },
    {
      "bufferView": 2,
      "byteOffset": 4776480,
      "componentType": 5126,
      "count": 65532,
      "max": [
        0.05827954411506653,
        1.0800918340682983,
        5.517627716064453
      ],
      "min": [
        -0.05756070464849472,
        -1.0900834798812866,
        -5.603302478790283
      ],
      "type": "VEC3"
    },
    {
      "bufferView": 2,
      "byteOffset": 5562864,
      "componentType": 5126,
      "count": 65532,
      "type": "VEC3"
    },
    {
      "bufferView": 3,
      "byteOffset": 3145536,
      "componentType": 5126,
      "count": 65532,
      "type": "VEC4"
    },
    {
      "bufferView": 1,
      "byteOffset": 3164928,
      "componentType": 5126,
      "count": 65532,
      "type": "VEC2"
    },
    {
      "bufferView": 1,
      "byteOffset": 3689184,
      "componentType": 5126,
      "count": 65532,
      "type": "VEC2"
    },
    {
      "bufferView": 0,
      "byteOffset": 4619868,
      "componentType": 5125,
      "count": 381837,
      "type": "SCALAR"
    },
    {
      "bufferView": 2,
      "byteOffset": 6349248,
      "componentType": 5126,
      "count": 65532,
      "max": [
        0.045589521527290344,
        1.0797152519226074,
        5.524754047393799
      ],
      "min": [
        -0.060927022248506546,
        -1.0900834798812866,
        -5.714789867401123
      ],
      "type": "VEC3"
    },
    {
      "bufferView": 2,
      "byteOffset": 7135632,
      "componentType": 5126,
      "count": 65532,
      "type": "VEC3"
    },
    {
      "bufferView": 3,
      "byteOffset": 4194048,
      "componentType": 5126,
      "count": 65532,
      "type": "VEC4"
    },
    {
      "bufferView": 1,
      "byteOffset": 4213440,
      "componentType": 5126,
      "count": 65532,
      "type": "VEC2"
    },
    {
      "bufferView": 1,
      "byteOffset": 4737696,
      "componentType": 5126,
      "count": 65532,
      "type": "VEC2"
    },
    {
      "bufferView": 0,
      "byteOffset": 6147216,
      "componentType": 5125,
      "count": 371091,
      "type": "SCALAR"
    },
    {
      "bufferView": 2,
      "byteOffset": 7922016,
      "componentType": 5126,
      "count": 65532,
      "max": [
        0.051832497119903564,
        1.0769643783569336,
        5.524754047393799
      ],
      "min": [
        -0.05497712269425392,
        -1.017382025718689,
        -5.496665000915527
      ],
      "type": "VEC3"
    },
    {
      "bufferView": 2,
      "byteOffset": 8708400,
      "componentType": 5126,
      "count": 65532,
      "type": "VEC3"
    },
    {
      "bufferView": 3,
      "byteOffset": 5242560,
      "componentType": 5126,
      "count": 65532,
      "type": "VEC4"
    },
    {
      "bufferView": 1,
      "byteOffset": 5261952,
      "componentType": 5126,
      "count": 65532,
      "type": "VEC2"
    },
    {
      "bufferView": 1,
      "byteOffset": 5786208,
      "componentType": 5126,
      "count": 65532,
      "type": "VEC2"
    },
    {
      "bufferView": 0,
      "byteOffset": 7631580,
      "componentType": 5125,
      "count": 375975,
      "type": "SCALAR"
    },
    {
      "bufferView": 2,
      "byteOffset": 9494784,
      "componentType": 5126,
      "count": 65532,
      "max": [
        0.05782293155789375,
        0.9018890261650085,
        5.524110794067383
      ],
      "min": [
        -0.02385357953608036,
        -1.0642118453979492,
        -5.588727951049805
      ],
      "type": "VEC3"
    },
    {
      "bufferView": 2,
      "byteOffset": 10281168,
      "componentType": 5126,
      "count": 65532,
      "type": "VEC3"
    },
    {
      "bufferView": 3,
      "byteOffset": 6291072,
      "componentType": 5126,
      "count": 65532,
      "type": "VEC4"
    },
    {
      "bufferView": 1,
      "byteOffset": 6310464,
      "componentType": 5126,
      "count": 65532,
      "type": "VEC2"
    },
    {
      "bufferView": 1,
      "byteOffset": 6834720,
      "componentType": 5126,
      "count": 65532,
      "type": "VEC2"
    },
    {
      "bufferView": 0,
      "byteOffset": 9135480,
      "componentType": 5125,
      "count": 385545,
      "type": "SCALAR"
    },
    {
      "bufferView": 2,
      "byteOffset": 11067552,
      "componentType": 5126,
      "count": 26801,
      "max": [
        0.049283064901828766,
        1.029956579208374,
        5.524348735809326
      ],
      "min": [
        -0.04993204399943352,
        -0.9991064071655273,
        -5.587162017822266
      ],
      "type": "VEC3"
    },
    {
      "bufferView": 2,
      "byteOffset": 11389164,
      "componentType": 5126,
      "count": 26801,
      "type": "VEC3"
    },
    {
      "bufferView": 3,
      "byteOffset": 7339584,
      "componentType": 5126,
      "count": 26801,
      "type": "VEC4"
    },
    {
      "bufferView": 1,
      "byteOffset": 7358976,
      "componentType": 5126,
      "count": 26801,
      "type": "VEC2"
    },
    {
      "bufferView": 1,
      "byteOffset": 7573384,
      "componentType": 5126,
      "count": 26801,
      "type": "VEC2"
    },
    {
      "bufferView": 0,
      "byteOffset": 10677660,
      "componentType": 5125,
      "count": 148749,
      "type": "SCALAR"
    }
  ],
  "asset": {
    "generator": "fab-model-conversion",
    "version": "2.0"
  },
  "bufferViews": [
    {
      "buffer": 0,
      "byteLength": 11272656,
      "target": 34963
    },
    {
      "buffer": 0,
      "byteLength": 7787792,
      "byteOffset": 11272656,
      "byteStride": 8,
      "target": 34962
    },
    {
      "buffer": 0,
      "byteLength": 11710776,
      "byteOffset": 19060448,
      "byteStride": 12,
      "target": 34962
    },
    {
      "buffer": 0,
      "byteLength": 7768400,
      "byteOffset": 30771224,
      "byteStride": 16,
      "target": 34962
    }
  ],
  "buffers": [
    {
      "byteLength": 38539624,
      "uri": "scene.bin"
    }
  ],
  "extensionsUsed": [
    "KHR_materials_specular"
  ],
  "images": [
    {
      "uri": "textures/Material.001_metallicRoughness.jpeg"
    },
    {
      "uri": "textures/Material.002_baseColor.jpeg"
    },
    {
      "uri": "textures/Material.002_metallicRoughness.jpeg"
    },
    {
      "uri": "textures/Material.002_normal.jpeg"
    },
    {
      "uri": "textures/Material.002_specular_f0.png"
    }
  ],
  "materials": [
    {
      "doubleSided": true,
      "name": "Material.001",
      "pbrMetallicRoughness": {
        "baseColorFactor": [
          0.8,
          0.8,
          0.8,
          1.0
        ],
        "metallicRoughnessTexture": {
          "index": 0
        },
        "roughnessFactor": 0.43259368984279695
      }
    },
    {
      "doubleSided": true,
      "extensions": {
        "KHR_materials_specular": {
          "specularColorFactor": [
            1.0,
            1.0,
            1.0
          ],
          "specularFactor": 1.0,
          "specularTexture": {
            "index": 4
          }
        }
      },
      "name": "Material.002",
      "normalTexture": {
        "index": 3
      },
      "occlusionTexture": {
        "index": 2
      },
      "pbrMetallicRoughness": {
        "baseColorTexture": {
          "index": 1
        },
        "metallicFactor": 0.0,
        "metallicRoughnessTexture": {
          "index": 2
        },
        "roughnessFactor": 0.8211145618000169
      }
    }
  ],
  "meshes": [
    {
      "name": "Cylinder.002_Material.001_0",
      "primitives": [
        {
          "attributes": {
            "NORMAL": 1,
            "POSITION": 0,
            "TEXCOORD_0": 2
          },
          "indices": 3,
          "material": 0,
          "mode": 4
        }
      ]
    },
    {
      "name": "Plane_Material.002_0",
      "primitives": [
        {
          "attributes": {
            "NORMAL": 5,
            "POSITION": 4,
            "TANGENT": 6,
            "TEXCOORD_0": 7,
            "TEXCOORD_1": 8
          },
          "indices": 9,
          "material": 1,
          "mode": 4
        }
      ]
    },
    {
      "name": "Plane_Material.002_0",
      "primitives": [
        {
          "attributes": {
            "NORMAL": 11,
            "POSITION": 10,
            "TANGENT": 12,
            "TEXCOORD_0": 13,
            "TEXCOORD_1": 14
          },
          "indices": 15,
          "material": 1,
          "mode": 4
        }
      ]
    },
    {
      "name": "Plane_Material.002_0",
      "primitives": [
        {
          "attributes": {
            "NORMAL": 17,
            "POSITION": 16,
            "TANGENT": 18,
            "TEXCOORD_0": 19,
            "TEXCOORD_1": 20
          },
          "indices": 21,
          "material": 1,
          "mode": 4
        }
      ]
    },
    {
      "name": "Plane_Material.002_0",
      "primitives": [
        {
          "attributes": {
            "NORMAL": 23,
            "POSITION": 22,
            "TANGENT": 24,
            "TEXCOORD_0": 25,
            "TEXCOORD_1": 26
          },
          "indices": 27,
          "material": 1,
          "mode": 4
        }
      ]
    },
    {
      "name": "Plane_Material.002_0",
      "primitives": [
        {
          "attributes": {
            "NORMAL": 29,
            "POSITION": 28,
            "TANGENT": 30,
            "TEXCOORD_0": 31,
            "TEXCOORD_1": 32
          },
          "indices": 33,
          "material": 1,
          "mode": 4
        }
      ]
    },
    {
      "name": "Plane_Material.002_0",
      "primitives": [
        {
          "attributes": {
            "NORMAL": 35,
            "POSITION": 34,
            "TANGENT": 36,
            "TEXCOORD_0": 37,
            "TEXCOORD_1": 38
          },
          "indices": 39,
          "material": 1,
          "mode": 4
        }
      ]
    },
    {
      "name": "Plane_Material.002_0",
      "primitives": [
        {
          "attributes": {
            "NORMAL": 41,
            "POSITION": 40,
            "TANGENT": 42,
            "TEXCOORD_0": 43,
            "TEXCOORD_1": 44
          },
          "indices": 45,
          "material": 1,
          "mode": 4
        }
      ]
    },
    {
      "name": "Plane_Material.002_0",
      "primitives": [
        {
          "attributes": {
            "NORMAL": 47,
            "POSITION": 46,
            "TANGENT": 48,
            "TEXCOORD_0": 49,
            "TEXCOORD_1": 50
          },
          "indices": 51,
          "material": 1,
          "mode": 4
        }
      ]
    }
  ],
  "nodes": [
    {
      "children": [
        1
      ],
      "matrix": [
        1.0,
        0.0,
        0.0,
        0.0,
        0.0,
        2.220446049250313e-16,
        -1.0,
        0.0,
        0.0,
        1.0,
        2.220446049250313e-16,
        0.0,
        0.0,
        0.0,
        0.0,
        1.0
      ],
      "name": "Sketchfab_model"
    },
    {
      "children": [
        2
      ],
      "matrix": [
        1.0,
        0.0,
        0.0,
        0.0,
        0.0,
        0.0,
        1.0,
        0.0,
        0.0,
        -1.0,
        0.0,
        0.0,
        0.0,
        0.0,
        0.0,
        1.0
      ],
      "name": "f92218402650441d84dff87a4db8beed.fbx"
    },
    {
      "children": [
        3,
        5
      ],
      "name": "RootNode"
    },
    {
      "children": [
        4
      ],
      "matrix": [
        7.549789948768648e-06,
        -99.99999999999973,
        0.0,
        0.0,
        7.549789954319763e-06,
        5.551115123125783e-13,
        -99.99999999999973,
        0.0,
        99.99999999999945,
        7.549789954319763e-06,
        7.549789948768648e-06,
        0.0,
        0.0,
        517.8267211914063,
        0.0,
        1.0
      ],
      "name": "Cylinder.002"
    },
    {
      "mesh": 0,
      "name": "Cylinder.002_Material.001_0"
    },
    {
      "children": [
        6,
        7,
        8,
        9,
        10,
        11,
        12,
        13
      ],
      "matrix": [
        1119.4241943359375,
        0.0,
        0.0,
        0.0,
        -0.0,
        -9.895781581848247e-05,
        -607.3987426757732,
        0.0,
        0.0,
        99.99999999999868,
        -1.629206793918314e-05,
        0.0,
        -2.0705807209014893,
        -5.790519714355469,
        -29.600200653076172,
        1.0
      ],
      "name": "Plane"
    },
    {
      "mesh": 1,
      "name": "Plane_Material.002_0"
    },
    {
      "mesh": 2,
      "name": "Plane_Material.002_0"
    },
    {
      "mesh": 3,
      "name": "Plane_Material.002_0"
    },
    {
      "mesh": 4,
      "name": "Plane_Material.002_0"
    },
    {
      "mesh": 5,
      "name": "Plane_Material.002_0"
    },
    {
      "mesh": 6,
      "name": "Plane_Material.002_0"
    },
    {
      "mesh": 7,
      "name": "Plane_Material.002_0"
    },
    {
      "mesh": 8,
      "name": "Plane_Material.002_0"
    }
  ],
  "samplers": [
    {
      "magFilter": 9729,
      "minFilter": 9987,
      "wrapS": 10497,
      "wrapT": 10497
    }
  ],
  "scene": 0,
  "scenes": [
    {
      "name": "Sketchfab_Scene",
      "nodes": [
        0
      ]
    }
  ],
  "textures": [
    {
      "sampler": 0,
      "source": 0
    },
    {
      "sampler": 0,
      "source": 1
    },
    {
      "sampler": 0,
      "source": 2
    },
    {
      "sampler": 0,
      "source": 3
    },
    {
      "sampler": 0,
      "source": 4
    }
  ]
}
