{
  "accessors": [
    {
      "bufferView": 2,
      "componentType": 5126,
      "count": 571,
      "max": [
        0.8771139979362488,
        0.5788339972496033,
        0.8840780258178711
      ],
      "min": [
        0.0784790962934494,
        -0.5965949892997742,
        -0.8698499798774719
      ],
      "type": "VEC3"
    },
    {
      "bufferView": 2,
      "byteOffset": 6852,
      "componentType": 5126,
      "count": 571,
      "type": "VEC3"
    },
    {
      "bufferView": 3,
      "componentType": 5126,
      "count": 571,
      "type": "VEC4"
    },
    {
      "bufferView": 1,
      "componentType": 5126,
      "count": 571,
      "type": "VEC2"
    },
    {
      "bufferView": 0,
      "componentType": 5125,
      "count": 2364,
      "type": "SCALAR"
    },
    {
      "bufferView": 2,
      "byteOffset": 13704,
      "componentType": 5126,
      "count": 1317,
      "max": [
        0.1410840004682541,
        0.7395529747009277,
        0.9994400143623352
      ],
      "min": [
        -0.8698149919509888,
        -0.9353820085525513,
        -0.998320996761322
      ],
      "type": "VEC3"
    },
    {
      "bufferView": 2,
      "byteOffset": 29508,
      "componentType": 5126,
      "count": 1317,
      "type": "VEC3"
    },
    {
      "bufferView": 3,
      "byteOffset": 9136,
      "componentType": 5126,
      "count": 1317,
      "type": "VEC4"
    },
    {
      "bufferView": 1,
      "byteOffset": 4568,
      "componentType": 5126,
      "count": 1317,
      "type": "VEC2"
    },
    {
      "bufferView": 0,
      "byteOffset": 9456,
      "componentType": 5125,
      "count": 3942,
      "type": "SCALAR"
    },
    {
      "bufferView": 2,
      "byteOffset": 45312,
      "componentType": 5126,
      "count": 1734,
      "max": [
        0.1447339951992035,
        0.9353820085525513,
        1.0
      ],
      "min": [
        -0.8771139979362488,
        0.547819972038269,
        -1.0
      ],
      "type": "VEC3"
    },
    {
      "bufferView": 2,
      "byteOffset": 66120,
      "componentType": 5126,
      "count": 1734,
      "type": "VEC3"
    },
    {
      "bufferView": 3,
      "byteOffset": 30208,
      "componentType": 5126,
      "count": 1734,
      "type": "VEC4"
    },
    {
      "bufferView": 1,
      "byteOffset": 15104,
      "componentType": 5126,
      "count": 1734,
      "type": "VEC2"
    },
    {
      "bufferView": 0,
      "byteOffset": 25224,
      "componentType": 5125,
      "count": 8856,
      "type": "SCALAR"
    }
  ],
  "asset": {
    "generator": "fab-model-conversion",
    "version": "2.0"
  },
  "bufferViews": [
    {
      "buffer": 0,
      "byteLength": 60648,
      "target": 34963
    },
    {
      "buffer": 0,
      "byteLength": 28976,
      "byteOffset": 60648,
      "byteStride": 8,
      "target": 34962
    },
    {
      "buffer": 0,
      "byteLength": 86928,
      "byteOffset": 89624,
      "byteStride": 12,
      "target": 34962
    },
    {
      "buffer": 0,
      "byteLength": 57952,
      "byteOffset": 176552,
      "byteStride": 16,
      "target": 34962
    }
  ],
  "buffers": [
    {
      "byteLength": 234504,
      "uri": "scene.bin"
    }
  ],
  "images": [
    {
      "uri": "textures/sink_cabinet__001__sink_top_baseColor.jpeg"
    },
    {
      "uri": "textures/sink_cabinet__001__sink_top_metallicRoughness.png"
    },
    {
      "uri": "textures/sink_cabinet__001__sink_top_normal.png"
    },
    {
      "uri": "textures/sink_cabinet__001__cabinet_baseColor.jpeg"
    },
    {
      "uri": "textures/sink_cabinet__001__cabinet_metallicRoughness.png"
    },
    {
      "uri": "textures/sink_cabinet__001__cabinet_normal.png"
    },
    {
      "uri": "textures/sink_cabinet__002__cabinetDoors_baseColor.jpeg"
    },
    {
      "uri": "textures/sink_cabinet__002__cabinetDoors_metallicRoughness.png"
    },
    {
      "uri": "textures/sink_cabinet__002__cabinetDoors_normal.png"
    }
  ],
  "materials": [
    {
      "doubleSided": true,
      "name": "sink_cabinet__001__sink_top",
      "normalTexture": {
        "index": 2
      },
      "pbrMetallicRoughness": {
        "baseColorTexture": {
          "index": 0
        },
        "metallicRoughnessTexture": {
          "index": 1
        }
      }
    },
    {
      "doubleSided": true,
      "name": "sink_cabinet__001__cabinet",
      "normalTexture": {
        "index": 5
      },
      "pbrMetallicRoughness": {
        "baseColorTexture": {
          "index": 3
        },
        "metallicRoughnessTexture": {
          "index": 4
        }
      }
    },
    {
      "doubleSided": true,
      "name": "sink_cabinet__002__cabinetDoors",
      "normalTexture": {
        "index": 8
      },
      "pbrMetallicRoughness": {
        "baseColorTexture": {
          "index": 6
        },
        "metallicRoughnessTexture": {
          "index": 7
        }
      }
    }
  ],
  "meshes": [
    {
      "name": "defaultMaterial",
      "primitives": [
        {
          "attributes": {
            "NORMAL": 1,
            "POSITION": 0,
            "TANGENT": 2,
            "TEXCOORD_0": 3
          },
          "indices": 4,
          "material": 2,
          "mode": 4
        }
      ]
    },
    {
      "name": "defaultMaterial",
      "primitives": [
        {
          "attributes": {
            "NORMAL": 6,
            "POSITION": 5,
            "TANGENT": 7,
            "TEXCOORD_0": 8
          },
          "indices": 9,
          "material": 1,
          "mode": 4
        }
      ]
    },
    {
      "name": "defaultMaterial",
      "primitives": [
        {
          "attributes": {
            "NORMAL": 11,
            "POSITION": 10,
            "TANGENT": 12,
            "TEXCOORD_0": 13
          },
          "indices": 14,
          "material": 0,
          "mode": 4
        }
      ]
    }
  ],
  "nodes": [
    {
      "children": [
        1
      ],
      "matrix": [
        1.0,
        0.0,
        0.0,
        0.0,
        0.0,
        2.220446049250313e-16,
        -1.0,
        0.0,
        0.0,
        1.0,
        2.220446049250313e-16,
        0.0,
        0.0,
        0.0,
        0.0,
        1.0
      ],
      "name": "Sketchfab_model"
    },
    {
      "children": [
        2,
        4,
        6
      ],
      "matrix": [
        1.0,
        0.0,
        0.0,
        0.0,
        0.0,
        -4.371139006309477e-08,
        0.999999999999999,
        0.0,
        0.0,
        -0.999999999999999,
        -4.371139006309477e-08,
        0.0,
        0.0,
        0.0,
        0.0,
        1.0
      ],
      "name": "Collada visual scene group"
    },
    {
      "children": [
        3
      ],
      "name": "Vanity_Door_R_Cube.014_Vanity_Door_R_Cube.014"
    },
    {
      "mesh": 0,
      "name": "defaultMaterial"
    },
    {
      "children": [
        5
      ],
      "name": "Vanity_Cube.013_Vanity_Cube.013"
    },
    {
      "mesh": 1,
      "name": "defaultMaterial"
    },
    {
      "children": [
        7
      ],
      "name": "Vanity_Top_Cube.015_Vanity_Top_Cube.015"
    },
    {
      "mesh": 2,
      "name": "defaultMaterial"
    }
  ],
  "samplers": [
    {
      "magFilter": 9729,
      "minFilter": 9987,
      "wrapS": 10497,
      "wrapT": 10497
    }
  ],
  "scene": 0,
  "scenes": [
    {
      "name": "Sketchfab_Scene",
      "nodes": [
        0
      ]
    }
  ],
  "textures": [
    {
      "sampler": 0,
      "source": 0
    },
    {
      "sampler": 0,
      "source": 1
    },
    {
      "sampler": 0,
      "source": 2
    },
    {
      "sampler": 0,
      "source": 3
    },
    {
      "sampler": 0,
      "source": 4
    },
    {
      "sampler": 0,
      "source": 5
    },
    {
      "sampler": 0,
      "source": 6
    },
    {
      "sampler": 0,
      "source": 7
    },
    {
      "sampler": 0,
      "source": 8
    }
  ]
}
