{
  "accessors": [
    {
      "bufferView": 2,
      "componentType": 5126,
      "count": 1077,
      "max": [
        0.1803855001926422,
        0.4208315312862396,
        0.675426721572876
      ],
      "min": [
        -0.07430952787399292,
        -0.4125366806983948,
        -0.678461492061615
      ],
      "type": "VEC3"
    },
    {
      "bufferView": 2,
      "byteOffset": 12924,
      "componentType": 5126,
      "count": 1077,
      "type": "VEC3"
    },
    {
      "bufferView": 3,
      "componentType": 5126,
      "count": 1077,
      "type": "VEC4"
    },
    {
      "bufferView": 1,
      "componentType": 5126,
      "count": 1077,
      "type": "VEC2"
    },
    {
      "bufferView": 1,
      "byteOffset": 8616,
      "componentType": 5126,
      "count": 1077,
      "type": "VEC2"
    },
    {
      "bufferView": 1,
      "byteOffset": 17232,
      "componentType": 5126,
      "count": 1077,
      "type": "VEC2"
    },
    {
      "bufferView": 0,
      "componentType": 5125,
      "count": 2526,
      "type": "SCALAR"
    }
  ],
  "asset": {
    "generator": "fab-model-conversion",
    "version": "2.0"
  },
  "bufferViews": [
    {
      "buffer": 0,
      "byteLength": 10104,
      "target": 34963
    },
    {
      "buffer": 0,
      "byteLength": 25848,
      "byteOffset": 10104,
      "byteStride": 8,
      "target": 34962
    },
    {
      "buffer": 0,
      "byteLength": 25848,
      "byteOffset": 35952,
      "byteStride": 12,
      "target": 34962
    },
    {
      "buffer": 0,
      "byteLength": 17232,
      "byteOffset": 61800,
      "byteStride": 16,
      "target": 34962
    }
  ],
  "buffers": [
    {
      "byteLength": 79032,
      "uri": "scene.bin"
    }
  ],
  "images": [
    {
      "uri": "textures/Shelf2BAKE_baseColor.png"
    },
    {
      "uri": "textures/Shelf2BAKE_metallicRoughness.png"
    },
    {
      "uri": "textures/Shelf2BAKE_normal.png"
    }
  ],
  "materials": [
    {
      "doubleSided": true,
      "name": "Shelf2BAKE",
      "normalTexture": {
        "index": 2
      },
      "pbrMetallicRoughness": {
        "baseColorTexture": {
          "index": 0
        },
        "metallicFactor": 0.0,
        "metallicRoughnessTexture": {
          "index": 1
        }
      }
    }
  ],
  "meshes": [
    {
      "name": "Shelf2BAKE_Shelf2BAKE_0",
      "primitives": [
        {
          "attributes": {
            "NORMAL": 1,
            "POSITION": 0,
            "TANGENT": 2,
            "TEXCOORD_0": 3,
            "TEXCOORD_1": 4,
            "TEXCOORD_2": 5
          },
          "indices": 6,
          "material": 0,
          "mode": 4
        }
      ]
    }
  ],
  "nodes": [
    {
      "children": [
        1
      ],
      "matrix": [
        1.0,
        0.0,
        0.0,
        0.0,
        0.0,
        2.220446049250313e-16,
        -1.0,
        0.0,
        0.0,
        1.0,
        2.220446049250313e-16,
        0.0,
        0.0,
        0.0,
        0.0,
        1.0
      ],
      "name": "Sketchfab_model"
    },
    {
      "children": [
        2
      ],
      "matrix": [
        1.0,
        0.0,
        0.0,
        0.0,
        0.0,
        0.0,
        1.0,
        0.0,
        0.0,
        -1.0,
        0.0,
        0.0,
        0.0,
        0.0,
        0.0,
        1.0
      ],
      "name": "Shelf2.fbx"
    },
    {
      "children": [
        3
      ],
      "name": "RootNode"
    },
    {
      "children": [
        4
      ],
      "matrix": [
        1.0,
        0.0,
        0.0,
        0.0,
        -0.0,
        -1.6292067939183141e-07,
        -0.9999999999999868,
        0.0,
        0.0,
        0.9999999999999868,
        -1.6292067939183141e-07,
        0.0,
        -0.1728765368461609,
        -0.5289846062660217,
        0.8938669562339783,
        1.0
      ],
      "name": "Shelf2BAKE"
    },
    {
      "mesh": 0,
      "name": "Shelf2BAKE_Shelf2BAKE_0"
    }
  ],
  "samplers": [
    {
      "magFilter": 9729,
      "minFilter": 9987,
      "wrapS": 10497,
      "wrapT": 10497
    }
  ],
  "scene": 0,
  "scenes": [
    {
      "name": "Sketchfab_Scene",
      "nodes": [
        0
      ]
    }
  ],
  "textures": [
    {
      "sampler": 0,
      "source": 0
    },
    {
      "sampler": 0,
      "source": 1
    },
    {
      "sampler": 0,
      "source": 2
    }
  ]
}
