{
  "accessors": [
    {
      "bufferView": 2,
      "componentType": 5126,
      "count": 65532,
      "max": [
        7.322140693664551,
        12.281048774719238,
        4.318611145019531
      ],
      "min": [
        -6.454484939575195,
        -8.30638313293457,
        0.6816530227661133
      ],
      "type": "VEC3"
    },
    {
      "bufferView": 2,
      "byteOffset": 786384,
      "componentType": 5126,
      "count": 65532,
      "max": [
        1.0,
        1.0,
        1.0
      ],
      "min": [
        -1.0,
        -0.9985174536705017,
        -1.0
      ],
      "type": "VEC3"
    },
    {
      "bufferView": 1,
      "componentType": 5126,
      "count": 65532,
      "max": [
        0.9994970560073853,
        1.0
      ],
      "min": [
        0.0,
        0.0021973848342895508
      ],
      "type": "VEC2"
    },
    {
      "bufferView": 0,
      "componentType": 5125,
      "count": 306189,
      "type": "SCALAR"
    },
    {
      "bufferView": 2,
      "byteOffset": 1572768,
      "componentType": 5126,
      "count": 65532,
      "max": [
        7.322140693664551,
        12.281038284301758,
        4.408157825469971
      ],
      "min": [
        -0.15559914708137512,
        -7.735954284667969,
        1.1909055709838867
      ],
      "type": "VEC3"
    },
    {
      "bufferView": 2,
      "byteOffset": 2359152,
      "componentType": 5126,
      "count": 65532,
      "max": [
        1.0,
        0.999928891658783,
        1.0
      ],
      "min": [
        -0.9825518727302551,
        -0.9981869459152222,
        -0.999169647693634
      ],
      "type": "VEC3"
    },
    {
      "bufferView": 1,
      "byteOffset": 524256,
      "componentType": 5126,
      "count": 65532,
      "max": [
        0.999149739742279,
        0.9821516871452332
      ],
      "min": [
        0.000244140625,
        0.0033820271492004395
      ],
      "type": "VEC2"
    },
    {
      "bufferView": 0,
      "byteOffset": 1224756,
      "componentType": 5125,
      "count": 298821,
      "type": "SCALAR"
    },
    {
      "bufferView": 2,
      "byteOffset": 3145536,
      "componentType": 5126,
      "count": 65532,
      "max": [
        7.322129726409912,
        6.2627973556518555,
        4.468430519104004
      ],
      "min": [
        -6.454484462738037,
        -8.30638313293457,
        0.6816530227661133
      ],
      "type": "VEC3"
    },
    {
      "bufferView": 2,
      "byteOffset": 3931920,
      "componentType": 5126,
      "count": 65532,
      "max": [
        1.0,
        0.9995508790016174,
        1.0
      ],
      "min": [
        -1.0,
        -1.0,
        -0.9999397993087769
      ],
      "type": "VEC3"
    },
    {
      "bufferView": 1,
      "byteOffset": 1048512,
      "componentType": 5126,
      "count": 65532,
      "max": [
        0.9996913075447083,
        1.0
      ],
      "min": [
        0.0,
        0.32055675983428955
      ],
      "type": "VEC2"
    },
    {
      "bufferView": 0,
      "byteOffset": 2420040,
      "componentType": 5125,
      "count": 264183,
      "type": "SCALAR"
    },
    {
      "bufferView": 2,
      "byteOffset": 4718304,
      "componentType": 5126,
      "count": 65532,
      "max": [
        2.0929510593414307,
        6.3001484870910645,
        4.46845006942749
      ],
      "min": [
        -6.454484939575195,
        -8.306365013122559,
        0.9153871536254883
      ],
      "type": "VEC3"
    },
    {
      "bufferView": 2,
      "byteOffset": 5504688,
      "componentType": 5126,
      "count": 65532,
      "max": [
        0.9999864101409912,
        0.9980818629264832,
        1.0
      ],
      "min": [
        -1.0,
        -0.9999998807907104,
        -0.9999397993087769
      ],
      "type": "VEC3"
    },
    {
      "bufferView": 1,
      "byteOffset": 1572768,
      "componentType": 5126,
      "count": 65532,
      "max": [
        0.9997557401657104,
        0.9997543692588806
      ],
      "min": [
        0.000244140625,
        0.6320801973342896
      ],
      "type": "VEC2"
    },
    {
      "bufferView": 0,
      "byteOffset": 3476772,
      "componentType": 5125,
      "count": 295650,
      "type": "SCALAR"
    },
    {
      "bufferView": 2,
      "byteOffset": 6291072,
      "componentType": 5126,
      "count": 65534,
      "max": [
        2.1065361499786377,
        6.312258720397949,
        8.247011184692383
      ],
      "min": [
        -6.454472064971924,
        -3.9003124237060547,
        1.1282272338867188
      ],
      "type": "VEC3"
    },
    {
      "bufferView": 2,
      "byteOffset": 7077480,
      "componentType": 5126,
      "count": 65534,
      "max": [
        0.9998483657836914,
        0.9997125864028931,
        0.9999998211860657
      ],
      "min": [
        -0.9999589920043945,
        -0.9994783997535706,
        -0.999729573726654
      ],
      "type": "VEC3"
    },
    {
      "bufferView": 1,
      "byteOffset": 2097024,
      "componentType": 5126,
      "count": 65534,
      "max": [
        0.9997416138648987,
        0.9997498393058777
      ],
      "min": [
        0.000244140625,
        0.6066895723342896
      ],
      "type": "VEC2"
    },
    {
      "bufferView": 0,
      "byteOffset": 4659372,
      "componentType": 5125,
      "count": 280623,
      "type": "SCALAR"
    },
    {
      "bufferView": 2,
      "byteOffset": 7863888,
      "componentType": 5126,
      "count": 65532,
      "max": [
        2.129485845565796,
        6.274557113647461,
        8.2601318359375
      ],
      "min": [
        -4.171021938323975,
        -7.734586715698242,
        3.0959720611572266
      ],
      "type": "VEC3"
    },
    {
      "bufferView": 2,
      "byteOffset": 8650272,
      "componentType": 5126,
      "count": 65532,
      "max": [
        0.9999848008155823,
        0.9999585747718811,
        1.0
      ],
      "min": [
        -0.9999995231628418,
        -0.9999036192893982,
        -0.9999253153800964
      ],
      "type": "VEC3"
    },
    {
      "bufferView": 1,
      "byteOffset": 2621296,
      "componentType": 5126,
      "count": 65532,
      "max": [
        0.9997417330741882,
        0.9997549057006836
      ],
      "min": [
        0.000244140625,
        0.5842286348342896
      ],
      "type": "VEC2"
    },
    {
      "bufferView": 0,
      "byteOffset": 5781864,
      "componentType": 5125,
      "count": 252030,
      "type": "SCALAR"
    },
    {
      "bufferView": 2,
      "byteOffset": 9436656,
      "componentType": 5126,
      "count": 65532,
      "max": [
        2.105942964553833,
        6.037632942199707,
        8.257528305053711
      ],
      "min": [
        -4.179802417755127,
        -8.306374549865723,
        0.9375820159912109
      ],
      "type": "VEC3"
    },
    {
      "bufferView": 2,
      "byteOffset": 10223040,
      "componentType": 5126,
      "count": 65532,
      "max": [
        0.9998044967651367,
        0.9999442100524902,
        1.0
      ],
      "min": [
        -0.99997878074646,
        -1.0,
        -0.9998562932014465
      ],
      "type": "VEC3"
    },
    {
      "bufferView": 1,
      "byteOffset": 3145552,
      "componentType": 5126,
      "count": 65532,
      "max": [
        0.9997318387031555,
        0.999754011631012
      ],
      "min": [
        0.000244140625,
        0.5598145723342896
      ],
      "type": "VEC2"
    },
    {
      "bufferView": 0,
      "byteOffset": 6789984,
      "componentType": 5125,
      "count": 224067,
      "type": "SCALAR"
    },
    {
      "bufferView": 2,
      "byteOffset": 11009424,
      "componentType": 5126,
      "count": 65532,
      "max": [
        7.322116374969482,
        6.330541133880615,
        8.276774406433105
      ],
      "min": [
        -3.519484281539917,
        -6.634722709655762,
        1.3186626434326172
      ],
      "type": "VEC3"
    },
    {
      "bufferView": 2,
      "byteOffset": 11795808,
      "componentType": 5126,
      "count": 65532,
      "max": [
        0.9999979138374329,
        0.9998478889465332,
        1.0
      ],
      "min": [
        -0.99983811378479,
        -0.9999706149101257,
        -0.9999740719795227
      ],
      "type": "VEC3"
    },
    {
      "bufferView": 1,
      "byteOffset": 3669808,
      "componentType": 5126,
      "count": 65532,
      "max": [
        0.9997443556785583,
        0.9997532367706299
      ],
      "min": [
        0.000244140625,
        0.32156097888946533
      ],
      "type": "VEC2"
    },
    {
      "bufferView": 0,
      "byteOffset": 7686252,
      "componentType": 5125,
      "count": 248568,
      "type": "SCALAR"
    },
    {
      "bufferView": 2,
      "byteOffset": 12582192,
      "componentType": 5126,
      "count": 65533,
      "max": [
        7.32213020324707,
        6.219136714935303,
        17.20218849182129
      ],
      "min": [
        -2.6689233779907227,
        -8.30638313293457,
        0.6816530227661133
      ],
      "type": "VEC3"
    },
    {
      "bufferView": 2,
      "byteOffset": 13368588,
      "componentType": 5126,
      "count": 65533,
      "max": [
        1.0,
        0.9999999403953552,
        0.9999997615814209
      ],
      "min": [
        -0.9999956488609314,
        -1.0,
        -0.9999947547912598
      ],
      "type": "VEC3"
    },
    {
      "bufferView": 1,
      "byteOffset": 4194064,
      "componentType": 5126,
      "count": 65533,
      "max": [
        0.9997553825378418,
        1.0
      ],
      "min": [
        0.0,
        0.14194345474243164
      ],
      "type": "VEC2"
    },
    {
      "bufferView": 0,
      "byteOffset": 8680524,
      "componentType": 5125,
      "count": 278286,
      "type": "SCALAR"
    },
    {
      "bufferView": 2,
      "byteOffset": 14154984,
      "componentType": 5126,
      "count": 65532,
      "max": [
        3.215679407119751,
        1.363152027130127,
        21.43335723876953
      ],
      "min": [
        -2.6689233779907227,
        -2.8164334297180176,
        10.001458168029785
      ],
      "type": "VEC3"
    },
    {
      "bufferView": 2,
      "byteOffset": 14941368,
      "componentType": 5126,
      "count": 65532,
      "max": [
        0.999991238117218,
        0.9999995231628418,
        0.9999415278434753
      ],
      "min": [
        -0.9999822378158569,
        -0.999973475933075,
        -0.9999947547912598
      ],
      "type": "VEC3"
    },
    {
      "bufferView": 1,
      "byteOffset": 4718328,
      "componentType": 5126,
      "count": 65532,
      "max": [
        0.9996865391731262,
        0.9763134717941284
      ],
      "min": [
        0.000244140625,
        0.1361125111579895
      ],
      "type": "VEC2"
    },
    {
      "bufferView": 0,
      "byteOffset": 9793668,
      "componentType": 5125,
      "count": 274812,
      "type": "SCALAR"
    },
    {
      "bufferView": 2,
      "byteOffset": 15727752,
      "componentType": 5126,
      "count": 65532,
      "max": [
        3.210487127304077,
        1.458482027053833,
        20.03426742553711
      ],
      "min": [
        -2.6461713314056396,
        -2.9719247817993164,
        8.154630661010742
      ],
      "type": "VEC3"
    },
    {
      "bufferView": 2,
      "byteOffset": 16514136,
      "componentType": 5126,
      "count": 65532,
      "max": [
        0.999968409538269,
        0.9999979138374329,
        0.9997303485870361
      ],
      "min": [
        -0.9999237060546875,
        -0.9999947547912598,
        -0.9999897480010986
      ],
      "type": "VEC3"
    },
    {
      "bufferView": 1,
      "byteOffset": 5242584,
      "componentType": 5126,
      "count": 65532,
      "max": [
        0.9997523427009583,
        0.9763085842132568
      ],
      "min": [
        0.000244140625,
        0.13598644733428955
      ],
      "type": "VEC2"
    },
    {
      "bufferView": 0,
      "byteOffset": 10892916,
      "componentType": 5125,
      "count": 265299,
      "type": "SCALAR"
    },
    {
      "bufferView": 2,
      "byteOffset": 17300520,
      "componentType": 5126,
      "count": 65532,
      "max": [
        3.468574047088623,
        1.0046725273132324,
        18.967424392700195
      ],
      "min": [
        -2.0549092292785645,
        -2.9961600303649902,
        8.154017448425293
      ],
      "type": "VEC3"
    },
    {
      "bufferView": 2,
      "byteOffset": 18086904,
      "componentType": 5126,
      "count": 65532,
      "max": [
        0.9999947547912598,
        0.9999306797981262,
        0.9992237687110901
      ],
      "min": [
        -0.9999861717224121,
        -0.9999913573265076,
        -0.9999896287918091
      ],
      "type": "VEC3"
    },
    {
      "bufferView": 1,
      "byteOffset": 5766840,
      "componentType": 5126,
      "count": 65532,
      "max": [
        0.9997437596321106,
        0.9762935638427734
      ],
      "min": [
        0.000244140625,
        0.11938488483428955
      ],
      "type": "VEC2"
    },
    {
      "bufferView": 0,
      "byteOffset": 11954112,
      "componentType": 5125,
      "count": 244944,
      "type": "SCALAR"
    },
    {
      "bufferView": 2,
      "byteOffset": 18873288,
      "componentType": 5126,
      "count": 61505,
      "max": [
        7.322140693664551,
        12.281037330627441,
        15.498518943786621
      ],
      "min": [
        -0.16028133034706116,
        -2.3505656719207764,
        1.5425281524658203
      ],
      "type": "VEC3"
    },
    {
      "bufferView": 2,
      "byteOffset": 19611348,
      "componentType": 5126,
      "count": 61505,
      "max": [
        0.9999987483024597,
        0.9999945163726807,
        1.0
      ],
      "min": [
        -0.9993782639503479,
        -0.9998740553855896,
        -0.9997310638427734
      ],
      "type": "VEC3"
    },
    {
      "bufferView": 1,
      "byteOffset": 6291096,
      "componentType": 5126,
      "count": 61505,
      "max": [
        0.9996805191040039,
        0.9743315577507019
      ],
      "min": [
        0.000244140625,
        0.0032902956008911133
      ],
      "type": "VEC2"
    },
    {
      "bufferView": 0,
      "byteOffset": 12933888,
      "componentType": 5125,
      "count": 204834,
      "type": "SCALAR"
    }
  ],
  "asset": {
    "extras": {
      "author": "netgis (https://sketchfab.com/netgis)",
      "license": "CC-BY-NC-4.0 (http://creativecommons.org/licenses/by-nc/4.0/)",
      "source": "https://sketchfab.com/3d-models/karl-marx-statue-648a0239e5ee4fa6a2859354ef511ca6",
      "title": "Karl Marx Statue"
    },
    "generator": "Sketchfab-13.82.0",
    "version": "2.0"
  },
  "bufferViews": [
    {
      "buffer": 0,
      "byteLength": 13753224,
      "name": "floatBufferViews",
      "target": 34963
    },
    {
      "buffer": 0,
      "byteLength": 6783136,
      "byteOffset": 13753224,
      "byteStride": 8,
      "name": "floatBufferViews",
      "target": 34962
    },
    {
      "buffer": 0,
      "byteLength": 20349408,
      "byteOffset": 20536360,
      "byteStride": 12,
      "name": "floatBufferViews",
      "target": 34962
    }
  ],
  "buffers": [
    {
      "byteLength": 40885768,
      "uri": "scene.bin"
    }
  ],
  "images": [
    {
      "uri": "textures/default_tex0_baseColor.jpeg"
    }
  ],
  "materials": [
    {
      "name": "default_tex0",
      "pbrMetallicRoughness": {
        "baseColorTexture": {
          "index": 0
        },
        "metallicFactor": 0.0
      }
    }
  ],
  "meshes": [
    {
      "name": "Object_0",
      "primitives": [
        {
          "attributes": {
            "NORMAL": 1,
            "POSITION": 0,
            "TEXCOORD_0": 2
          },
          "indices": 3,
          "material": 0,
          "mode": 4
        }
      ]
    },
    {
      "name": "Object_1",
      "primitives": [
        {
          "attributes": {
            "NORMAL": 5,
            "POSITION": 4,
            "TEXCOORD_0": 6
          },
          "indices": 7,
          "material": 0,
          "mode": 4
        }
      ]
    },
    {
      "name": "Object_2",
      "primitives": [
        {
          "attributes": {
            "NORMAL": 9,
            "POSITION": 8,
            "TEXCOORD_0": 10
          },
          "indices": 11,
          "material": 0,
          "mode": 4
        }
      ]
    },
    {
      "name": "Object_3",
      "primitives": [
        {
          "attributes": {
            "NORMAL": 13,
            "POSITION": 12,
            "TEXCOORD_0": 14
          },
          "indices": 15,
          "material": 0,
          "mode": 4
        }
      ]
    },
    {
      "name": "Object_4",
      "primitives": [
        {
          "attributes": {
            "NORMAL": 17,
            "POSITION": 16,
            "TEXCOORD_0": 18
          },
          "indices": 19,
          "material": 0,
          "mode": 4
        }
      ]
    },
    {
      "name": "Object_5",
      "primitives": [
        {
          "attributes": {
            "NORMAL": 21,
            "POSITION": 20,
            "TEXCOORD_0": 22
          },
          "indices": 23,
          "material": 0,
          "mode": 4
        }
      ]
    },
    {
      "name": "Object_6",
      "primitives": [
        {
          "attributes": {
            "NORMAL": 25,
            "POSITION": 24,
            "TEXCOORD_0": 26
          },
          "indices": 27,
          "material": 0,
          "mode": 4
        }
      ]
    },
    {
      "name": "Object_7",
      "primitives": [
        {
          "attributes": {
            "NORMAL": 29,
            "POSITION": 28,
            "TEXCOORD_0": 30
          },
          "indices": 31,
          "material": 0,
          "mode": 4
        }
      ]
    },
    {
      "name": "Object_8",
      "primitives": [
        {
          "attributes": {
            "NORMAL": 33,
            "POSITION": 32,
            "TEXCOORD_0": 34
          },
          "indices": 35,
          "material": 0,
          "mode": 4
        }
      ]
    },
    {
      "name": "Object_9",
      "primitives": [
        {
          "attributes": {
            "NORMAL": 37,
            "POSITION": 36,
            "TEXCOORD_0": 38
          },
          "indices": 39,
          "material": 0,
          "mode": 4
        }
      ]
    },
    {
      "name": "Object_10",
      "primitives": [
        {
          "attributes": {
            "NORMAL": 41,
            "POSITION": 40,
            "TEXCOORD_0": 42
          },
          "indices": 43,
          "material": 0,
          "mode": 4
        }
      ]
    },
    {
      "name": "Object_11",
      "primitives": [
        {
          "attributes": {
            "NORMAL": 45,
            "POSITION": 44,
            "TEXCOORD_0": 46
          },
          "indices": 47,
          "material": 0,
          "mode": 4
        }
      ]
    },
    {
      "name": "Object_12",
      "primitives": [
        {
          "attributes": {
            "NORMAL": 49,
            "POSITION": 48,
            "TEXCOORD_0": 50
          },
          "indices": 51,
          "material": 0,
          "mode": 4
        }
      ]
    }
  ],
  "nodes": [
    {
      "children": [
        1
      ],
      "matrix": [
        0.9999814033508301,
        -0.006102955434471369,
        -1.3722213225265923e-05,
        0.0,
        -0.0061029233038425446,
        -0.9999799728393555,
        0.0016891410341484114,
        0.0,
        -2.4030690838117152e-05,
        -0.0016890258993951246,
        -0.9999985694885254,
        0.0,
        0.0,
        0.0,
        0.0,
        1.0
      ],
      "name": "Sketchfab_model"
    },
    {
      "children": [
        2
      ],
      "name": "root"
    },
    {
      "children": [
        3
      ],
      "matrix": [
        1.0,
        0.0,
        0.0,
        0.0,
        0.0,
        2.220446049250313e-16,
        1.0,
        0.0,
        0.0,
        -1.0,
        2.220446049250313e-16,
        0.0,
        0.0,
        0.0,
        0.0,
        1.0
      ],
      "name": "GLTF_SceneRootNode"
    },
    {
      "children": [
        4,
        5,
        6,
        7,
        8,
        9,
        10,
        11,
        12,
        13,
        14,
        15,
        16
      ],
      "name": "_0"
    },
    {
      "mesh": 0,
      "name": "Object_4"
    },
    {
      "mesh": 1,
      "name": "Object_5"
    },
    {
      "mesh": 2,
      "name": "Object_6"
    },
    {
      "mesh": 3,
      "name": "Object_7"
    },
    {
      "mesh": 4,
      "name": "Object_8"
    },
    {
      "mesh": 5,
      "name": "Object_9"
    },
    {
      "mesh": 6,
      "name": "Object_10"
    },
    {
      "mesh": 7,
      "name": "Object_11"
    },
    {
      "mesh": 8,
      "name": "Object_12"
    },
    {
      "mesh": 9,
      "name": "Object_13"
    },
    {
      "mesh": 10,
      "name": "Object_14"
    },
    {
      "mesh": 11,
      "name": "Object_15"
    },
    {
      "mesh": 12,
      "name": "Object_16"
    }
  ],
  "samplers": [
    {
      "magFilter": 9729,
      "minFilter": 9729,
      "wrapS": 33071,
      "wrapT": 33071
    }
  ],
  "scene": 0,
  "scenes": [
    {
      "name": "Sketchfab_Scene",
      "nodes": [
        0
      ]
    }
  ],
  "textures": [
    {
      "sampler": 0,
      "source": 0
    }
  ]
}
