{
  "asset": {
    "generator": "Khronos glTF Blender I/O v3.2.43",
    "version": "2.0"
  },
  "extensionsUsed": [
    "KHR_texture_transform"
  ],
  "extensionsRequired": [
    "KHR_texture_transform"
  ],
  "scene": 0,
  "scenes": [
    {
      "name": "Scene",
      "nodes": [
        0
      ]
    }
  ],
  "nodes": [
    {
      "mesh": 0,
      "name": "sphere_gltf"
    }
  ],
  "materials": [
    {
      "doubleSided": true,
      "name": "laminate_floor_02",
      "normalTexture": {
        "extensions": {
          "KHR_texture_transform": {
            "offset": [
              0.5,
              0
            ]
          }
        },
        "index": 0
      },
      "pbrMetallicRoughness": {
        "baseColorTexture": {
          "extensions": {
            "KHR_texture_transform": {
              "offset": [
                0.5,
                0
              ]
            }
          },
          "index": 1
        },
        "metallicFactor": 0,
        "metallicRoughnessTexture": {
          "extensions": {
            "KHR_texture_transform": {
              "offset": [
                0.5,
                0
              ]
            }
          },
          "index": 2
        }
      }
    }
  ],
  "meshes": [
    {
      "name": "Sphere.001",
      "primitives": [
        {
          "attributes": {
            "POSITION": 0,
            "NORMAL": 1,
            "TEXCOORD_0": 2
          },
          "indices": 3,
          "material": 0
        }
      ]
    }
  ],
  "textures": [
    {
      "sampler": 0,
      "source": 0
    },
    {
      "sampler": 0,
      "source": 1
    },
    {
      "sampler": 0,
      "source": 2
    }
  ],
  "images": [
    {
      "mimeType": "image/jpeg",
      "name": "laminate_floor_02_nor_gl_8k",
      "uri": "textures/laminate_floor_02_nor_gl_4k.jpg"
    },
    {
      "mimeType": "image/jpeg",
      "name": "laminate_floor_02_diff_8k",
      "uri": "textures/laminate_floor_02_diff_4k.jpg"
    },
    {
      "mimeType": "image/jpeg",
      "name": "laminate_floor_02_rough_8k",
      "uri": "textures/laminate_floor_02_rough_4k.jpg"
    }
  ],
  "accessors": [
    {
      "bufferView": 0,
      "componentType": 5126,
      "count": 53923,
      "max": [
        0.8499747514724731,
        0.8499671220779419,
        0.8499394059181213
      ],
      "min": [
        -0.8499753475189209,
        -0.849973201751709,
        -0.849941611289978
      ],
      "type": "VEC3"
    },
    {
      "bufferView": 1,
      "componentType": 5126,
      "count": 53923,
      "type": "VEC3"
    },
    {
      "bufferView": 2,
      "componentType": 5126,
      "count": 53923,
      "type": "VEC2"
    },
    {
      "bufferView": 3,
      "componentType": 5123,
      "count": 322170,
      "type": "SCALAR"
    }
  ],
  "bufferViews": [
    {
      "buffer": 0,
      "byteLength": 647076,
      "byteOffset": 0
    },
    {
      "buffer": 0,
      "byteLength": 647076,
      "byteOffset": 647076
    },
    {
      "buffer": 0,
      "byteLength": 431384,
      "byteOffset": 1294152
    },
    {
      "buffer": 0,
      "byteLength": 644340,
      "byteOffset": 1725536
    }
  ],
  "samplers": [
    {
      "magFilter": 9729,
      "minFilter": 9987
    }
  ],
  "buffers": [
    {
      "byteLength": 2369876,
      "uri": "laminate_floor_02.bin"
    }
  ]
}