{
  "accessors": [
    {
      "bufferView": 2,
      "componentType": 5126,
      "count": 4,
      "max": [
        77.22270965576172,
        -10.502030372619629,
        0.0
      ],
      "min": [
        -0.5272892713546753,
        -10.564530372619629,
        0.0
      ],
      "type": "VEC3"
    },
    {
      "bufferView": 0,
      "componentType": 5125,
      "count": 4,
      "type": "SCALAR"
    },
    {
      "bufferView": 2,
      "byteOffset": 48,
      "componentType": 5126,
      "count": 7024,
      "max": [
        68.94367980957031,
        15.987854957580566,
        82.15625
      ],
      "min": [
        -70.56836700439453,
        -8.754565238952637,
        11.369790077209473
      ],
      "type": "VEC3"
    },
    {
      "bufferView": 2,
      "byteOffset": 84336,
      "componentType": 5126,
      "count": 7024,
      "type": "VEC3"
    },
    {
      "bufferView": 0,
      "byteOffset": 16,
      "componentType": 5125,
      "count": 24108,
      "type": "SCALAR"
    },
    {
      "bufferView": 2,
      "byteOffset": 168624,
      "componentType": 5126,
      "count": 65532,
      "max": [
        73.05704498291016,
        16.131120681762695,
        82.125
      ],
      "min": [
        -75.50360870361328,
        -8.813854217529297,
        7.25
      ],
      "type": "VEC3"
    },
    {
      "bufferView": 2,
      "byteOffset": 955008,
      "componentType": 5126,
      "count": 65532,
      "type": "VEC3"
    },
    {
      "bufferView": 1,
      "componentType": 5126,
      "count": 65532,
      "type": "VEC2"
    },
    {
      "bufferView": 0,
      "byteOffset": 96448,
      "componentType": 5125,
      "count": 169731,
      "type": "SCALAR"
    },
    {
      "bufferView": 2,
      "byteOffset": 1741392,
      "componentType": 5126,
      "count": 65532,
      "max": [
        74.25617980957031,
        16.135326385498047,
        69.17500305175781
      ],
      "min": [
        -75.67816162109375,
        -8.811796188354492,
        7.25
      ],
      "type": "VEC3"
    },
    {
      "bufferView": 2,
      "byteOffset": 2527776,
      "componentType": 5126,
      "count": 65532,
      "type": "VEC3"
    },
    {
      "bufferView": 1,
      "byteOffset": 524256,
      "componentType": 5126,
      "count": 65532,
      "type": "VEC2"
    },
    {
      "bufferView": 0,
      "byteOffset": 775372,
      "componentType": 5125,
      "count": 155484,
      "type": "SCALAR"
    },
    {
      "bufferView": 2,
      "byteOffset": 3314160,
      "componentType": 5126,
      "count": 36648,
      "max": [
        74.25617980957031,
        16.090160369873047,
        82.125
      ],
      "min": [
        -41.03922653198242,
        -8.82957649230957,
        7.25
      ],
      "type": "VEC3"
    },
    {
      "bufferView": 2,
      "byteOffset": 3753936,
      "componentType": 5126,
      "count": 36648,
      "type": "VEC3"
    },
    {
      "bufferView": 1,
      "byteOffset": 1048512,
      "componentType": 5126,
      "count": 36648,
      "type": "VEC2"
    },
    {
      "bufferView": 0,
      "byteOffset": 1397308,
      "componentType": 5125,
      "count": 94029,
      "type": "SCALAR"
    },
    {
      "bufferView": 2,
      "byteOffset": 4193712,
      "componentType": 5126,
      "count": 10646,
      "max": [
        67.88117980957031,
        15.893701553344727,
        82.125
      ],
      "min": [
        -69.31742858886719,
        -8.685465812683105,
        17.3125
      ],
      "type": "VEC3"
    },
    {
      "bufferView": 2,
      "byteOffset": 4321464,
      "componentType": 5126,
      "count": 10646,
      "type": "VEC3"
    },
    {
      "bufferView": 0,
      "byteOffset": 1773424,
      "componentType": 5125,
      "count": 40278,
      "type": "SCALAR"
    },
    {
      "bufferView": 2,
      "byteOffset": 4449216,
      "componentType": 5126,
      "count": 10646,
      "max": [
        67.88117980957031,
        15.893701553344727,
        82.125
      ],
      "min": [
        -69.31742858886719,
        -8.685465812683105,
        17.3125
      ],
      "type": "VEC3"
    },
    {
      "bufferView": 2,
      "byteOffset": 4576968,
      "componentType": 5126,
      "count": 10646,
      "type": "VEC3"
    },
    {
      "bufferView": 0,
      "byteOffset": 1934536,
      "componentType": 5125,
      "count": 40278,
      "type": "SCALAR"
    },
    {
      "bufferView": 2,
      "byteOffset": 4704720,
      "componentType": 5126,
      "count": 6,
      "max": [
        77.34770965576172,
        -9.091423988342285,
        72.0
      ],
      "min": [
        -78.65229034423828,
        -10.463863372802734,
        0.0
      ],
      "type": "VEC3"
    },
    {
      "bufferView": 0,
      "byteOffset": 2095648,
      "componentType": 5125,
      "count": 6,
      "type": "SCALAR"
    },
    {
      "bufferView": 2,
      "byteOffset": 4704792,
      "componentType": 5126,
      "count": 35191,
      "max": [
        77.34770965576172,
        19.455595016479492,
        72.0
      ],
      "min": [
        -78.65229034423828,
        -10.834659576416016,
        0.0
      ],
      "type": "VEC3"
    },
    {
      "bufferView": 2,
      "byteOffset": 5127084,
      "componentType": 5126,
      "count": 35191,
      "type": "VEC3"
    },
    {
      "bufferView": 3,
      "componentType": 5126,
      "count": 35191,
      "type": "VEC4"
    },
    {
      "bufferView": 1,
      "byteOffset": 1341696,
      "componentType": 5126,
      "count": 35191,
      "type": "VEC2"
    },
    {
      "bufferView": 0,
      "byteOffset": 2095672,
      "componentType": 5125,
      "count": 65736,
      "type": "SCALAR"
    }
  ],
  "asset": {
    "generator": "fab-model-conversion",
    "version": "2.0"
  },
  "bufferViews": [
    {
      "buffer": 0,
      "byteLength": 2358616,
      "target": 34963
    },
    {
      "buffer": 0,
      "byteLength": 1623224,
      "byteOffset": 2358616,
      "byteStride": 8,
      "target": 34962
    },
    {
      "buffer": 0,
      "byteLength": 5549376,
      "byteOffset": 3981840,
      "byteStride": 12,
      "target": 34962
    },
    {
      "buffer": 0,
      "byteLength": 563056,
      "byteOffset": 9531216,
      "byteStride": 16,
      "target": 34962
    }
  ],
  "buffers": [
    {
      "byteLength": 10094272,
      "uri": "scene.bin"
    }
  ],
  "images": [
    {
      "uri": "textures/cardboard_baseColor.jpeg"
    },
    {
      "uri": "textures/Metal21-basecolor_baseColor.jpeg"
    },
    {
      "uri": "textures/Metal21-basecolor_metallicRoughness.png"
    },
    {
      "uri": "textures/Metal21-basecolor_normal.jpeg"
    }
  ],
  "materials": [
    {
      "name": "edge_color000255",
      "pbrMetallicRoughness": {
        "metallicFactor": 0.0,
        "roughnessFactor": 0.6
      }
    },
    {
      "alphaMode": "BLEND",
      "name": "Tape",
      "pbrMetallicRoughness": {
        "baseColorFactor": [
          0.12256760431052603,
          0.05288397872583932,
          0.031320655034916906,
          0.5306851139120442
        ],
        "metallicFactor": 0.0,
        "roughnessFactor": 0.13547385829548425
      }
    },
    {
      "name": "cardboard",
      "pbrMetallicRoughness": {
        "baseColorTexture": {
          "index": 0
        },
        "metallicFactor": 0.0,
        "roughnessFactor": 0.8225334257519654
      }
    },
    {
      "name": "Color_M08",
      "pbrMetallicRoughness": {
        "baseColorFactor": [
          0.117647,
          0.117647,
          0.117647,
          1.0
        ],
        "metallicFactor": 0.0,
        "roughnessFactor": 0.6
      }
    },
    {
      "name": "material",
      "pbrMetallicRoughness": {
        "baseColorFactor": [
          0.643137,
          0.698039,
          0.733333,
          1.0
        ],
        "metallicFactor": 0.0,
        "roughnessFactor": 0.6
      }
    },
    {
      "name": "edge_color255153204255",
      "pbrMetallicRoughness": {
        "metallicFactor": 0.0,
        "roughnessFactor": 0.6
      }
    },
    {
      "name": "Metal21-basecolor",
      "normalTexture": {
        "index": 3
      },
      "pbrMetallicRoughness": {
        "baseColorTexture": {
          "index": 1
        },
        "metallicRoughnessTexture": {
          "index": 2
        }
      }
    }
  ],
  "meshes": [
    {
      "name": "Material2",
      "primitives": [
        {
          "attributes": {
            "POSITION": 0
          },
          "indices": 1,
          "material": 0,
          "mode": 1
        }
      ]
    },
    {
      "name": "Material2",
      "primitives": [
        {
          "attributes": {
            "NORMAL": 3,
            "POSITION": 2
          },
          "indices": 4,
          "material": 1,
          "mode": 4
        }
      ]
    },
    {
      "name": "Material2",
      "primitives": [
        {
          "attributes": {
            "NORMAL": 6,
            "POSITION": 5,
            "TEXCOORD_0": 7
          },
          "indices": 8,
          "material": 2,
          "mode": 4
        }
      ]
    },
    {
      "name": "Material2",
      "primitives": [
        {
          "attributes": {
            "NORMAL": 10,
            "POSITION": 9,
            "TEXCOORD_0": 11
          },
          "indices": 12,
          "material": 2,
          "mode": 4
        }
      ]
    },
    {
      "name": "Material2",
      "primitives": [
        {
          "attributes": {
            "NORMAL": 14,
            "POSITION": 13,
            "TEXCOORD_0": 15
          },
          "indices": 16,
          "material": 2,
          "mode": 4
        }
      ]
    },
    {
      "name": "Material2",
      "primitives": [
        {
          "attributes": {
            "NORMAL": 18,
            "POSITION": 17
          },
          "indices": 19,
          "material": 3,
          "mode": 4
        }
      ]
    },
    {
      "name": "Material3",
      "primitives": [
        {
          "attributes": {
            "NORMAL": 21,
            "POSITION": 20
          },
          "indices": 22,
          "material": 4,
          "mode": 4
        }
      ]
    },
    {
      "name": "Material2",
      "primitives": [
        {
          "attributes": {
            "POSITION": 23
          },
          "indices": 24,
          "material": 5,
          "mode": 1
        }
      ]
    },
    {
      "name": "Material2",
      "primitives": [
        {
          "attributes": {
            "NORMAL": 26,
            "POSITION": 25,
            "TANGENT": 27,
            "TEXCOORD_0": 28
          },
          "indices": 29,
          "material": 6,
          "mode": 4
        }
      ]
    }
  ],
  "nodes": [
    {
      "children": [
        1
      ],
      "matrix": [
        1.0,
        0.0,
        0.0,
        0.0,
        0.0,
        2.220446049250313e-16,
        -1.0,
        0.0,
        0.0,
        1.0,
        2.220446049250313e-16,
        0.0,
        0.0,
        0.0,
        0.0,
        1.0
      ],
      "name": "Sketchfab_model"
    },
    {
      "children": [
        2,
        3,
        4,
        5,
        6,
        7,
        8,
        9,
        10,
        11
      ],
      "name": "Collada visual scene group"
    },
    {
      "mesh": 0,
      "name": "Material2"
    },
    {
      "mesh": 1,
      "name": "Material2"
    },
    {
      "mesh": 2,
      "name": "Material2"
    },
    {
      "mesh": 3,
      "name": "Material2"
    },
    {
      "mesh": 4,
      "name": "Material2"
    },
    {
      "mesh": 5,
      "name": "Material2"
    },
    {
      "mesh": 6,
      "name": "Material3"
    },
    {
      "mesh": 7,
      "name": "Material2"
    },
    {
      "mesh": 8,
      "name": "Material2"
    },
    {
      "children": [
        12
      ],
      "name": "SketchUp"
    },
    {
      "children": [
        13
      ],
      "matrix": [
        0.9105022,
        -0.4135042,
        -1.387779e-17,
        0.0,
        0.1000469,
        0.220295,
        0.970289,
        0.0,
        -0.4012186,
        -0.8834503,
        0.2419489,
        0.0,
        -93.0537,
        -148.0897,
        77.59382,
        1.0
      ],
      "name": "skp_camera_Last_Saved_SketchUp_View"
    },
    {
      "name": "ID1"
    }
  ],
  "samplers": [
    {
      "magFilter": 9729,
      "minFilter": 9987,
      "wrapS": 10497,
      "wrapT": 10497
    }
  ],
  "scene": 0,
  "scenes": [
    {
      "name": "Sketchfab_Scene",
      "nodes": [
        0
      ]
    }
  ],
  "textures": [
    {
      "sampler": 0,
      "source": 0
    },
    {
      "sampler": 0,
      "source": 1
    },
    {
      "sampler": 0,
      "source": 2
    },
    {
      "sampler": 0,
      "source": 3
    }
  ]
}
