{
  "accessors": [
    {
      "bufferView": 2,
      "componentType": 5126,
      "count": 37940,
      "max": [
        37.523681640625,
        73.07633972167969,
        22.066572189331055
      ],
      "min": [
        -37.523681640625,
        -1.502869281466701e-06,
        -22.06658172607422
      ],
      "type": "VEC3"
    },
    {
      "bufferView": 2,
      "byteOffset": 455280,
      "componentType": 5126,
      "count": 37940,
      "type": "VEC3"
    },
    {
      "bufferView": 3,
      "componentType": 5126,
      "count": 37940,
      "type": "VEC4"
    },
    {
      "bufferView": 1,
      "componentType": 5126,
      "count": 37940,
      "type": "VEC2"
    },
    {
      "bufferView": 1,
      "byteOffset": 303520,
      "componentType": 5126,
      "count": 37940,
      "type": "VEC2"
    },
    {
      "bufferView": 1,
      "byteOffset": 607040,
      "componentType": 5126,
      "count": 37940,
      "type": "VEC2"
    },
    {
      "bufferView": 1,
      "byteOffset": 910560,
      "componentType": 5126,
      "count": 37940,
      "type": "VEC2"
    },
    {
      "bufferView": 0,
      "componentType": 5125,
      "count": 116880,
      "type": "SCALAR"
    }
  ],
  "asset": {
    "generator": "fab-model-conversion",
    "version": "2.0"
  },
  "bufferViews": [
    {
      "buffer": 0,
      "byteLength": 467520,
      "target": 34963
    },
    {
      "buffer": 0,
      "byteLength": 1214080,
      "byteOffset": 467520,
      "byteStride": 8,
      "target": 34962
    },
    {
      "buffer": 0,
      "byteLength": 910560,
      "byteOffset": 1681600,
      "byteStride": 12,
      "target": 34962
    },
    {
      "buffer": 0,
      "byteLength": 607040,
      "byteOffset": 2592160,
      "byteStride": 16,
      "target": 34962
    }
  ],
  "buffers": [
    {
      "byteLength": 3199200,
      "uri": "scene.bin"
    }
  ],
  "images": [
    {
      "uri": "textures/FURNITURE_056_MAT_baseColor.png"
    },
    {
      "uri": "textures/FURNITURE_056_MAT_metallicRoughness.png"
    },
    {
      "uri": "textures/FURNITURE_056_MAT_normal.png"
    }
  ],
  "materials": [
    {
      "doubleSided": true,
      "name": "FURNITURE_056_MAT",
      "normalTexture": {
        "index": 2
      },
      "pbrMetallicRoughness": {
        "baseColorTexture": {
          "index": 0
        },
        "metallicFactor": 0.0,
        "metallicRoughnessTexture": {
          "index": 1
        }
      }
    }
  ],
  "meshes": [
    {
      "name": "wooden wall shelf_FURNITURE_056_MAT_0",
      "primitives": [
        {
          "attributes": {
            "NORMAL": 1,
            "POSITION": 0,
            "TANGENT": 2,
            "TEXCOORD_0": 3,
            "TEXCOORD_1": 4,
            "TEXCOORD_2": 5,
            "TEXCOORD_3": 6
          },
          "indices": 7,
          "material": 0,
          "mode": 4
        }
      ]
    }
  ],
  "nodes": [
    {
      "children": [
        1
      ],
      "matrix": [
        1.0,
        0.0,
        0.0,
        0.0,
        0.0,
        2.220446049250313e-16,
        -1.0,
        0.0,
        0.0,
        1.0,
        2.220446049250313e-16,
        0.0,
        0.0,
        0.0,
        0.0,
        1.0
      ],
      "name": "Sketchfab_model"
    },
    {
      "children": [
        2
      ],
      "matrix": [
        0.009999999776482582,
        0.0,
        0.0,
        0.0,
        0.0,
        0.0,
        0.009999999776482582,
        0.0,
        0.0,
        -0.009999999776482582,
        0.0,
        0.0,
        0.0,
        0.0,
        0.0,
        1.0
      ],
      "name": "wooden_wall_shelf.fbx"
    },
    {
      "children": [
        3
      ],
      "name": "RootNode"
    },
    {
      "children": [
        4
      ],
      "name": "wooden wall shelf_ROOT"
    },
    {
      "children": [
        5
      ],
      "name": "wooden wall shelf"
    },
    {
      "mesh": 0,
      "name": "wooden wall shelf_FURNITURE_056_MAT_0"
    }
  ],
  "samplers": [
    {
      "magFilter": 9729,
      "minFilter": 9987,
      "wrapS": 10497,
      "wrapT": 10497
    }
  ],
  "scene": 0,
  "scenes": [
    {
      "name": "Sketchfab_Scene",
      "nodes": [
        0
      ]
    }
  ],
  "textures": [
    {
      "sampler": 0,
      "source": 0
    },
    {
      "sampler": 0,
      "source": 1
    },
    {
      "sampler": 0,
      "source": 2
    }
  ]
}
