{
  "accessors": [
    {
      "bufferView": 2,
      "componentType": 5126,
      "count": 65532,
      "max": [
        37.93076705932617,
        36.914119720458984,
        1.1484719514846802
      ],
      "min": [
        -38.8701286315918,
        -32.12723159790039,
        -144.7174072265625
      ],
      "type": "VEC3"
    },
    {
      "bufferView": 2,
      "byteOffset": 786384,
      "componentType": 5126,
      "count": 65532,
      "max": [
        0.9999879002571106,
        0.9999925494194031,
        0.9999987483024597
      ],
      "min": [
        -0.9999948740005493,
        -0.9999978542327881,
        -1.0
      ],
      "type": "VEC3"
    },
    {
      "bufferView": 1,
      "componentType": 5126,
      "count": 65532,
      "max": [
        0.9997310042381287,
        0.9990209937095642
      ],
      "min": [
        0.010501000098884106,
        0.0002690000110305846
      ],
      "type": "VEC2"
    },
    {
      "bufferView": 0,
      "componentType": 5125,
      "count": 359526,
      "type": "SCALAR"
    },
    {
      "bufferView": 2,
      "byteOffset": 1572768,
      "componentType": 5126,
      "count": 65532,
      "max": [
        38.91771697998047,
        23.6328182220459,
        138.66098022460938
      ],
      "min": [
        -30.35195541381836,
        -22.83186149597168,
        -106.83973693847656
      ],
      "type": "VEC3"
    },
    {
      "bufferView": 2,
      "byteOffset": 2359152,
      "componentType": 5126,
      "count": 65532,
      "max": [
        0.9999996423721313,
        0.9999998807907104,
        0.9992736577987671
      ],
      "min": [
        -0.9999993443489075,
        -0.9999971389770508,
        -0.9899831414222717
      ],
      "type": "VEC3"
    },
    {
      "bufferView": 1,
      "byteOffset": 524256,
      "componentType": 5126,
      "count": 65532,
      "max": [
        0.9734399914741516,
        0.9688029885292053
      ],
      "min": [
        4.600000102072954e-05,
        0.002601000014692545
      ],
      "type": "VEC2"
    },
    {
      "bufferView": 0,
      "byteOffset": 1438104,
      "componentType": 5125,
      "count": 356217,
      "type": "SCALAR"
    },
    {
      "bufferView": 2,
      "byteOffset": 3145536,
      "componentType": 5126,
      "count": 65533,
      "max": [
        38.91771697998047,
        34.7150993347168,
        60.90150833129883
      ],
      "min": [
        -38.9177131652832,
        -26.191516876220703,
        -143.93939208984375
      ],
      "type": "VEC3"
    },
    {
      "bufferView": 2,
      "byteOffset": 3931932,
      "componentType": 5126,
      "count": 65533,
      "max": [
        0.9999797344207764,
        0.9999892115592957,
        0.9999168515205383
      ],
      "min": [
        -0.9999958872795105,
        -0.9999778866767883,
        -0.9828916192054749
      ],
      "type": "VEC3"
    },
    {
      "bufferView": 1,
      "byteOffset": 1048512,
      "componentType": 5126,
      "count": 65533,
      "max": [
        0.9730280041694641,
        0.9982470273971558
      ],
      "min": [
        2.5999999706982635e-05,
        0.00773000018671155
      ],
      "type": "VEC2"
    },
    {
      "bufferView": 0,
      "byteOffset": 2862972,
      "componentType": 5125,
      "count": 346734,
      "type": "SCALAR"
    },
    {
      "bufferView": 2,
      "byteOffset": 4718328,
      "componentType": 5126,
      "count": 65532,
      "max": [
        38.07402038574219,
        36.914119720458984,
        138.5313262939453
      ],
      "min": [
        -38.863399505615234,
        -32.09092330932617,
        -144.7174072265625
      ],
      "type": "VEC3"
    },
    {
      "bufferView": 2,
      "byteOffset": 5504712,
      "componentType": 5126,
      "count": 65532,
      "max": [
        0.9999992251396179,
        0.9999991059303284,
        0.9999803304672241
      ],
      "min": [
        -0.9999993443489075,
        -0.9999978542327881,
        -0.9999727606773376
      ],
      "type": "VEC3"
    },
    {
      "bufferView": 1,
      "byteOffset": 1572776,
      "componentType": 5126,
      "count": 65532,
      "max": [
        0.9999510049819946,
        0.999584972858429
      ],
      "min": [
        0.004753999877721071,
        6.000000212225132e-06
      ],
      "type": "VEC2"
    },
    {
      "bufferView": 0,
      "byteOffset": 4249908,
      "componentType": 5125,
      "count": 310377,
      "type": "SCALAR"
    },
    {
      "bufferView": 2,
      "byteOffset": 6291096,
      "componentType": 5126,
      "count": 45058,
      "max": [
        37.82488250732422,
        36.04792785644531,
        144.6248321533203
      ],
      "min": [
        -38.767276763916016,
        -30.301328659057617,
        -144.68321228027344
      ],
      "type": "VEC3"
    },
    {
      "bufferView": 2,
      "byteOffset": 6831792,
      "componentType": 5126,
      "count": 45058,
      "max": [
        0.9997802376747131,
        0.9999998807907104,
        0.9996955394744873
      ],
      "min": [
        -0.9999948740005493,
        -0.9999831318855286,
        -0.9999937415122986
      ],
      "type": "VEC3"
    },
    {
      "bufferView": 1,
      "byteOffset": 2097032,
      "componentType": 5126,
      "count": 45058,
      "max": [
        0.9934809803962708,
        0.9995729923248291
      ],
      "min": [
        7.599999662488699e-05,
        0.00015700000221841037
      ],
      "type": "VEC2"
    },
    {
      "bufferView": 0,
      "byteOffset": 5491416,
      "componentType": 5125,
      "count": 212586,
      "type": "SCALAR"
    }
  ],
  "asset": {
    "extras": {
      "author": "FilippoViciani (https://sketchfab.com/FilippoViciani)",
      "license": "CC-BY-4.0 (http://creativecommons.org/licenses/by/4.0/)",
      "source": "https://sketchfab.com/3d-models/virgin-mary-clay-statue-9d1826dc2b2a4891bd681d61c94326e7",
      "title": "Virgin Mary Clay Statue"
    },
    "generator": "Sketchfab-12.66.0",
    "version": "2.0"
  },
  "bufferViews": [
    {
      "buffer": 0,
      "byteLength": 6341760,
      "name": "floatBufferViews",
      "target": 34963
    },
    {
      "buffer": 0,
      "byteLength": 2457496,
      "byteOffset": 6341760,
      "byteStride": 8,
      "name": "floatBufferViews",
      "target": 34962
    },
    {
      "buffer": 0,
      "byteLength": 7372488,
      "byteOffset": 8799256,
      "byteStride": 12,
      "name": "floatBufferViews",
      "target": 34962
    }
  ],
  "buffers": [
    {
      "byteLength": 16171744,
      "uri": "scene.bin"
    }
  ],
  "images": [
    {
      "uri": "textures/material_0_baseColor.jpeg"
    }
  ],
  "materials": [
    {
      "doubleSided": true,
      "name": "material_0",
      "pbrMetallicRoughness": {
        "baseColorTexture": {
          "index": 0
        },
        "metallicFactor": 0.0
      }
    }
  ],
  "meshes": [
    {
      "name": "Object_0",
      "primitives": [
        {
          "attributes": {
            "NORMAL": 1,
            "POSITION": 0,
            "TEXCOORD_0": 2
          },
          "indices": 3,
          "material": 0,
          "mode": 4
        }
      ]
    },
    {
      "name": "Object_1",
      "primitives": [
        {
          "attributes": {
            "NORMAL": 5,
            "POSITION": 4,
            "TEXCOORD_0": 6
          },
          "indices": 7,
          "material": 0,
          "mode": 4
        }
      ]
    },
    {
      "name": "Object_2",
      "primitives": [
        {
          "attributes": {
            "NORMAL": 9,
            "POSITION": 8,
            "TEXCOORD_0": 10
          },
          "indices": 11,
          "material": 0,
          "mode": 4
        }
      ]
    },
    {
      "name": "Object_3",
      "primitives": [
        {
          "attributes": {
            "NORMAL": 13,
            "POSITION": 12,
            "TEXCOORD_0": 14
          },
          "indices": 15,
          "material": 0,
          "mode": 4
        }
      ]
    },
    {
      "name": "Object_4",
      "primitives": [
        {
          "attributes": {
            "NORMAL": 17,
            "POSITION": 16,
            "TEXCOORD_0": 18
          },
          "indices": 19,
          "material": 0,
          "mode": 4
        }
      ]
    }
  ],
  "nodes": [
    {
      "children": [
        1
      ],
      "matrix": [
        1.0,
        0.0,
        0.0,
        0.0,
        0.0,
        2.220446049250313e-16,
        -1.0,
        0.0,
        0.0,
        1.0,
        2.220446049250313e-16,
        0.0,
        0.0,
        0.0,
        0.0,
        1.0
      ],
      "name": "Sketchfab_model"
    },
    {
      "children": [
        2,
        3,
        4,
        5,
        6
      ],
      "name": "StatuaTerracotta.obj.cleaner.materialmerger.gles"
    },
    {
      "mesh": 0,
      "name": "Object_2"
    },
    {
      "mesh": 1,
      "name": "Object_3"
    },
    {
      "mesh": 2,
      "name": "Object_4"
    },
    {
      "mesh": 3,
      "name": "Object_5"
    },
    {
      "mesh": 4,
      "name": "Object_6"
    }
  ],
  "samplers": [
    {
      "magFilter": 9729,
      "minFilter": 9987,
      "wrapS": 10497,
      "wrapT": 10497
    }
  ],
  "scene": 0,
  "scenes": [
    {
      "name": "Sketchfab_Scene",
      "nodes": [
        0
      ]
    }
  ],
  "textures": [
    {
      "sampler": 0,
      "source": 0
    }
  ]
}
