{
  "accessors": [
    {
      "bufferView": 2,
      "componentType": 5126,
      "count": 2242,
      "max": [
        10.961791038513184,
        7.904916763305664,
        31.786680221557617
      ],
      "min": [
        -11.005376815795898,
        -7.958285808563232,
        0.6720770001411438
      ],
      "type": "VEC3"
    },
    {
      "bufferView": 2,
      "byteOffset": 26904,
      "componentType": 5126,
      "count": 2242,
      "type": "VEC3"
    },
    {
      "bufferView": 1,
      "componentType": 5126,
      "count": 2242,
      "type": "VEC2"
    },
    {
      "bufferView": 0,
      "componentType": 5125,
      "count": 12168,
      "type": "SCALAR"
    },
    {
      "bufferView": 2,
      "byteOffset": 53808,
      "componentType": 5126,
      "count": 4194,
      "max": [
        4.316737174987793,
        4.256393909454346,
        42.26485061645508
      ],
      "min": [
        -7.337449073791504,
        -6.2728271484375,
        31.990108489990234
      ],
      "type": "VEC3"
    },
    {
      "bufferView": 2,
      "byteOffset": 104136,
      "componentType": 5126,
      "count": 4194,
      "type": "VEC3"
    },
    {
      "bufferView": 1,
      "byteOffset": 17936,
      "componentType": 5126,
      "count": 4194,
      "type": "VEC2"
    },
    {
      "bufferView": 0,
      "byteOffset": 48672,
      "componentType": 5125,
      "count": 18252,
      "type": "SCALAR"
    },
    {
      "bufferView": 2,
      "byteOffset": 154464,
      "componentType": 5126,
      "count": 1362,
      "max": [
        9.654010772705078,
        7.39722204208374,
        10.976880073547363
      ],
      "min": [
        -9.207533836364746,
        -7.714602947235107,
        0.672868013381958
      ],
      "type": "VEC3"
    },
    {
      "bufferView": 2,
      "byteOffset": 170808,
      "componentType": 5126,
      "count": 1362,
      "type": "VEC3"
    },
    {
      "bufferView": 1,
      "byteOffset": 51488,
      "componentType": 5126,
      "count": 1362,
      "type": "VEC2"
    },
    {
      "bufferView": 0,
      "byteOffset": 121680,
      "componentType": 5125,
      "count": 6150,
      "type": "SCALAR"
    },
    {
      "bufferView": 2,
      "byteOffset": 187152,
      "componentType": 5126,
      "count": 5291,
      "max": [
        2.9231629371643066,
        2.771245002746582,
        33.29503631591797
      ],
      "min": [
        -2.923163890838623,
        -2.771243095397949,
        1.6535840034484863
      ],
      "type": "VEC3"
    },
    {
      "bufferView": 2,
      "byteOffset": 250644,
      "componentType": 5126,
      "count": 5291,
      "type": "VEC3"
    },
    {
      "bufferView": 1,
      "byteOffset": 62384,
      "componentType": 5126,
      "count": 5291,
      "type": "VEC2"
    },
    {
      "bufferView": 0,
      "byteOffset": 146280,
      "componentType": 5125,
      "count": 11424,
      "type": "SCALAR"
    },
    {
      "bufferView": 2,
      "byteOffset": 314136,
      "componentType": 5126,
      "count": 2246,
      "max": [
        11.025785446166992,
        7.945487022399902,
        32.69736862182617
      ],
      "min": [
        -11.069643020629883,
        -7.997428894042969,
        0.5943959951400757
      ],
      "type": "VEC3"
    },
    {
      "bufferView": 2,
      "byteOffset": 341088,
      "componentType": 5126,
      "count": 2246,
      "type": "VEC3"
    },
    {
      "bufferView": 1,
      "byteOffset": 104712,
      "componentType": 5126,
      "count": 2246,
      "type": "VEC2"
    },
    {
      "bufferView": 0,
      "byteOffset": 191976,
      "componentType": 5125,
      "count": 12000,
      "type": "SCALAR"
    }
  ],
  "asset": {
    "generator": "fab-model-conversion",
    "version": "2.0"
  },
  "bufferViews": [
    {
      "buffer": 0,
      "byteLength": 239976,
      "target": 34963
    },
    {
      "buffer": 0,
      "byteLength": 122680,
      "byteOffset": 239976,
      "byteStride": 8,
      "target": 34962
    },
    {
      "buffer": 0,
      "byteLength": 368040,
      "byteOffset": 362656,
      "byteStride": 12,
      "target": 34962
    }
  ],
  "buffers": [
    {
      "byteLength": 730696,
      "uri": "scene.bin"
    }
  ],
  "extensionsUsed": [
    "KHR_materials_transmission",
    "KHR_materials_specular"
  ],
  "images": [
    {
      "uri": "textures/pasted__rsMaterial1SG_baseColor.png"
    },
    {
      "uri": "textures/pasted__rsMaterial1SG_transmission.png"
    },
    {
      "uri": "textures/rsMaterial1SG_baseColor.png"
    },
    {
      "uri": "textures/rsMaterial1SG_metallicRoughness.png"
    },
    {
      "uri": "textures/rsMaterial1SG_transmission.png"
    },
    {
      "uri": "textures/rsMaterial5SG_baseColor.png"
    },
    {
      "uri": "textures/rsMaterial5SG_metallicRoughness.png"
    }
  ],
  "materials": [
    {
      "alphaMode": "BLEND",
      "doubleSided": true,
      "extensions": {
        "KHR_materials_specular": {
          "specularColorFactor": [
            1.0,
            1.0,
            1.0
          ],
          "specularFactor": 1.0
        },
        "KHR_materials_transmission": {
          "transmissionFactor": 1.0,
          "transmissionTexture": {
            "index": 1
          }
        }
      },
      "name": "pasted__rsMaterial1SG",
      "pbrMetallicRoughness": {
        "baseColorTexture": {
          "index": 0
        },
        "metallicFactor": 0.0,
        "roughnessFactor": 0.0
      }
    },
    {
      "alphaMode": "BLEND",
      "doubleSided": true,
      "extensions": {
        "KHR_materials_specular": {
          "specularColorFactor": [
            1.0,
            1.0,
            1.0
          ],
          "specularFactor": 1.0
        },
        "KHR_materials_transmission": {
          "transmissionFactor": 1.0,
          "transmissionTexture": {
            "index": 4
          }
        }
      },
      "name": "rsMaterial1SG",
      "pbrMetallicRoughness": {
        "baseColorTexture": {
          "index": 2
        },
        "metallicFactor": 0.0,
        "metallicRoughnessTexture": {
          "index": 3
        }
      }
    },
    {
      "doubleSided": true,
      "extensions": {
        "KHR_materials_specular": {
          "specularFactor": 1
        }
      },
      "name": "rsMaterial4SG",
      "pbrMetallicRoughness": {
        "baseColorFactor": [
          0.7681511472475071,
          1.0,
          0.5583403896342679,
          1.0
        ],
        "metallicFactor": 0.0,
        "roughnessFactor": 0.18742914264119662
      }
    },
    {
      "doubleSided": true,
      "extensions": {
        "KHR_materials_specular": {
          "specularColorFactor": [
            1.0,
            1.0,
            1.0
          ],
          "specularFactor": 1.0
        }
      },
      "name": "rsMaterial5SG",
      "pbrMetallicRoughness": {
        "baseColorTexture": {
          "index": 5
        },
        "metallicFactor": 0.0,
        "metallicRoughnessTexture": {
          "index": 6
        }
      }
    },
    {
      "alphaMode": "BLEND",
      "doubleSided": true,
      "name": "rsMaterial6SG",
      "pbrMetallicRoughness": {
        "baseColorFactor": [
          1.0,
          1.0,
          1.0,
          0.21790542599748874
        ],
        "metallicFactor": 0.0,
        "roughnessFactor": 0.6
      }
    }
  ],
  "meshes": [
    {
      "name": "Object_0",
      "primitives": [
        {
          "attributes": {
            "NORMAL": 1,
            "POSITION": 0,
            "TEXCOORD_0": 2
          },
          "indices": 3,
          "material": 0,
          "mode": 4
        }
      ]
    },
    {
      "name": "Object_1",
      "primitives": [
        {
          "attributes": {
            "NORMAL": 5,
            "POSITION": 4,
            "TEXCOORD_0": 6
          },
          "indices": 7,
          "material": 3,
          "mode": 4
        }
      ]
    },
    {
      "name": "Object_2",
      "primitives": [
        {
          "attributes": {
            "NORMAL": 9,
            "POSITION": 8,
            "TEXCOORD_0": 10
          },
          "indices": 11,
          "material": 2,
          "mode": 4
        }
      ]
    },
    {
      "name": "Object_3",
      "primitives": [
        {
          "attributes": {
            "NORMAL": 13,
            "POSITION": 12,
            "TEXCOORD_0": 14
          },
          "indices": 15,
          "material": 4,
          "mode": 4
        }
      ]
    },
    {
      "name": "Object_4",
      "primitives": [
        {
          "attributes": {
            "NORMAL": 17,
            "POSITION": 16,
            "TEXCOORD_0": 18
          },
          "indices": 19,
          "material": 1,
          "mode": 4
        }
      ]
    }
  ],
  "nodes": [
    {
      "children": [
        1
      ],
      "matrix": [
        1.0,
        0.0,
        0.0,
        0.0,
        0.0,
        2.220446049250313e-16,
        -1.0,
        0.0,
        0.0,
        1.0,
        2.220446049250313e-16,
        0.0,
        0.0,
        0.0,
        0.0,
        1.0
      ],
      "name": "Sketchfab_model"
    },
    {
      "children": [
        2,
        3,
        4,
        5,
        6
      ],
      "name": "SoapBottle.obj.cleaner.materialmerger.gles"
    },
    {
      "mesh": 0,
      "name": "Object_2"
    },
    {
      "mesh": 1,
      "name": "Object_3"
    },
    {
      "mesh": 2,
      "name": "Object_4"
    },
    {
      "mesh": 3,
      "name": "Object_5"
    },
    {
      "mesh": 4,
      "name": "Object_6"
    }
  ],
  "samplers": [
    {
      "magFilter": 9729,
      "minFilter": 9987,
      "wrapS": 10497,
      "wrapT": 10497
    }
  ],
  "scene": 0,
  "scenes": [
    {
      "name": "Sketchfab_Scene",
      "nodes": [
        0
      ]
    }
  ],
  "textures": [
    {
      "sampler": 0,
      "source": 0
    },
    {
      "sampler": 0,
      "source": 1
    },
    {
      "sampler": 0,
      "source": 2
    },
    {
      "sampler": 0,
      "source": 3
    },
    {
      "sampler": 0,
      "source": 4
    },
    {
      "sampler": 0,
      "source": 5
    },
    {
      "sampler": 0,
      "source": 6
    }
  ]
}
